<?xml version="1.0" standalone="no"?>
<!DOCTYPE svg PUBLIC "-//W3C//DTD SVG 20010904//EN"
 "http://www.w3.org/TR/2001/REC-SVG-20010904/DTD/svg10.dtd">
<svg version="1.0" xmlns="http://www.w3.org/2000/svg"
 width="486.000000pt" height="486.000000pt" viewBox="0 0 486.000000 486.000000"
 preserveAspectRatio="xMidYMid meet">
<metadata>
Created by potrace 1.11, written by Peter Selinger 2001-2013
</metadata>
<g transform="translate(0.000000,486.000000) scale(0.100000,-0.100000)"
fill="#000000" stroke="none">
<path d="M0 2430 l0 -2430 364 0 365 0 -2 27 c-3 40 27 42 49 4 11 -19 21 -26
25 -19 4 6 -6 22 -22 36 -22 18 -36 22 -55 18 -23 -6 -26 -4 -22 12 3 10 0 29
-7 42 -10 20 -9 30 6 64 10 23 18 55 17 71 -1 26 -1 27 -5 5 -5 -34 -24 -80
-32 -80 -4 0 -13 6 -20 12 -11 10 -13 10 -7 1 10 -18 1 -16 -19 3 -9 9 -13 24
-10 35 4 10 2 19 -3 19 -15 0 9 71 26 78 8 3 23 0 33 -7 11 -6 19 -7 19 -1 0
5 -9 14 -21 21 -17 9 -25 7 -43 -10 -27 -26 -54 -19 -62 15 -4 17 3 35 27 66
26 34 28 39 9 23 -14 -11 -29 -26 -33 -33 -12 -18 -27 -15 -27 7 0 28 -11 52
-20 46 -5 -3 -7 3 -6 12 4 26 34 41 46 23 8 -13 10 -12 10 3 0 9 -5 17 -12 17
-9 0 -9 3 0 12 7 7 12 25 12 40 0 33 37 75 52 60 16 -16 22 -97 9 -134 -10
-31 -10 -32 5 -13 20 26 15 142 -7 156 -21 13 -28 11 -55 -17 -19 -18 -24 -31
-20 -49 8 -31 -28 -72 -48 -56 -7 6 -16 8 -20 4 -4 -4 -4 0 0 10 4 11 1 17 -7
17 -9 0 -10 3 -4 8 6 4 11 20 12 37 2 22 20 46 73 97 60 57 70 72 70 101 0 45
-19 62 -54 46 -24 -11 -43 -43 -37 -64 4 -14 -29 -35 -56 -35 -18 0 -23 6 -23
25 0 38 25 70 70 90 35 16 53 35 34 35 -16 0 -75 -44 -92 -68 -36 -52 -32
-102 8 -102 28 0 80 48 77 72 -2 25 24 44 48 34 14 -5 16 -13 11 -39 -4 -23
-25 -49 -71 -92 -36 -33 -65 -66 -65 -72 0 -7 -4 -13 -9 -13 -6 0 -8 9 -6 20
2 11 -1 20 -6 20 -16 0 -36 24 -31 38 2 6 -1 12 -7 12 -16 0 -6 122 13 159 31
59 45 69 87 64 34 -5 42 -2 67 25 26 28 82 54 82 38 0 -3 -16 -24 -36 -46 -45
-50 -36 -53 11 -4 41 41 44 60 13 70 l-23 7 25 9 c14 6 37 14 51 18 24 7 25 6
15 -15 -6 -13 -15 -21 -21 -18 -5 4 -7 3 -3 -2 4 -4 3 -14 -3 -21 -6 -7 -8
-18 -4 -24 5 -8 13 -3 23 12 28 39 46 60 77 90 29 27 52 38 40 18 -12 -19 10
-9 51 23 22 17 58 41 80 52 21 11 42 25 46 31 24 37 138 76 138 48 0 -8 3 -14
8 -14 4 0 8 18 8 40 1 22 10 52 19 67 l19 28 21 -71 c20 -67 158 -351 209
-432 12 -20 31 -54 41 -74 17 -37 19 -38 72 -38 41 0 52 3 47 13 -5 6 -33 48
-64 92 -128 185 -212 349 -214 422 -1 17 -5 35 -10 40 -5 4 -6 3 -2 -5 9 -15
-10 -16 -20 0 -4 6 -2 14 4 16 7 2 9 8 6 14 -11 18 18 60 39 54 11 -3 17 0 14
7 -2 7 -12 11 -21 11 -25 -3 -13 20 12 24 12 2 22 7 22 12 0 5 -12 7 -27 4
-25 -5 -28 -2 -30 22 -1 31 12 48 47 59 36 11 50 25 49 49 0 14 -2 16 -6 6 -8
-19 -24 -35 -45 -43 -14 -5 -18 -1 -18 18 0 14 4 25 9 25 5 0 7 9 4 19 -3 10
0 28 6 40 8 15 9 21 1 21 -6 0 -8 5 -4 11 5 8 10 6 16 -5 5 -9 13 -14 19 -11
15 10 10 -25 -6 -42 -19 -18 -15 -26 9 -17 9 3 16 15 16 25 0 10 5 19 11 19 7
0 9 -10 7 -25 -4 -20 -3 -23 8 -14 16 13 4 43 -21 53 -22 8 -19 26 5 26 11 0
20 -5 20 -12 0 -6 2 -9 5 -6 3 3 3 12 -1 21 -4 12 -11 14 -30 7 -14 -6 -24 -6
-24 0 0 5 -10 11 -22 13 l-23 4 22 8 c19 6 40 45 24 45 -4 0 -7 9 -7 20 0 18
3 17 23 -8 12 -15 22 -22 23 -15 0 6 -4 15 -10 18 -16 10 -12 47 7 60 16 12
14 12 -10 8 -15 -3 -24 -10 -20 -16 3 -5 2 -7 -4 -4 -14 9 -8 58 8 68 8 4 10
11 6 15 -3 4 -13 1 -21 -5 -10 -8 -16 -9 -21 -1 -3 5 -3 10 2 10 4 0 8 11 8
25 0 24 -7 30 -30 25 -5 -1 -2 7 8 17 15 18 15 20 0 36 -13 13 -14 19 -3 31 7
9 19 16 26 16 8 0 14 7 14 16 0 8 5 12 11 9 6 -4 7 -19 4 -35 -6 -27 3 -53 31
-90 6 -8 22 -44 34 -80 13 -36 33 -78 46 -93 13 -16 24 -32 24 -35 1 -4 14
-22 30 -41 29 -34 29 -34 24 -8 -6 34 4 35 16 1 9 -22 15 -25 40 -22 19 3 31
0 35 -10 4 -10 0 -12 -10 -8 -11 4 -14 2 -8 -7 4 -6 7 -23 6 -37 -1 -19 0 -20
4 -5 9 35 20 37 31 6 11 -32 27 -40 35 -18 3 6 6 -1 6 -17 1 -16 10 -37 23
-47 13 -12 16 -19 8 -19 -9 0 -7 -5 5 -13 10 -8 15 -19 12 -24 -8 -13 18 -36
44 -40 13 -2 17 2 13 15 -5 14 -4 14 6 -2 14 -21 22 -86 11 -86 -4 0 -13 6
-21 13 -12 10 -12 9 0 -8 33 -47 133 -129 143 -118 4 3 7 1 7 -5 0 -6 25 -27
55 -47 31 -21 52 -42 48 -48 -3 -5 -1 -7 5 -3 6 3 13 2 17 -3 3 -6 28 -22 55
-37 28 -15 50 -31 50 -36 0 -4 8 -8 19 -8 10 0 24 -6 31 -14 6 -8 18 -12 26
-9 7 3 17 -2 20 -11 3 -9 12 -16 20 -16 7 0 37 -11 67 -24 72 -34 138 -56 164
-56 12 0 24 -4 28 -10 3 -5 13 -6 21 -3 13 5 15 1 9 -18 -11 -34 -26 -51 -42
-45 -7 3 -13 -1 -13 -9 0 -18 -16 -20 -26 -3 -4 7 -3 8 4 4 7 -4 12 -2 12 3 0
6 -9 11 -20 11 -10 0 -23 7 -28 16 -6 11 -11 13 -16 5 -4 -6 -2 -11 5 -11 7 0
9 -3 6 -6 -13 -13 37 -45 58 -38 38 13 105 13 105 1 0 -18 -29 -104 -29 -89
-1 7 -6 10 -11 7 -6 -4 -8 -10 -5 -14 10 -16 44 -19 71 -5 15 8 29 12 32 9 3
-3 -1 -6 -9 -6 -8 -1 4 -5 26 -8 22 -4 48 -3 58 1 11 6 17 5 17 -2 0 -6 5 -8
13 -3 6 4 22 6 35 4 12 -1 22 2 22 8 0 6 5 11 11 11 5 0 7 -4 4 -10 -3 -5 0
-10 7 -11 7 0 21 -2 31 -4 10 -2 21 3 24 11 3 8 10 14 15 14 6 0 8 -7 5 -15
-4 -8 -1 -17 5 -21 7 -5 8 -2 3 6 -6 10 -3 12 14 7 14 -3 24 0 27 8 3 7 14 11
27 8 22 -5 22 -5 2 10 -19 15 -19 15 6 10 20 -4 27 0 31 15 4 14 1 19 -11 17
-9 -1 -15 -8 -13 -14 1 -7 -4 -11 -12 -9 -8 2 -21 -5 -28 -14 -10 -13 -17 -15
-28 -7 -13 9 -12 10 3 5 11 -4 16 -2 12 5 -4 6 -13 8 -19 6 -7 -3 -19 -1 -26
3 -11 7 -11 12 -2 23 7 8 10 23 6 33 -5 18 -5 18 9 2 8 -10 18 -18 23 -18 4 0
3 5 -4 12 -20 20 -14 26 28 24 22 -1 46 1 53 6 9 6 9 8 0 8 -7 0 -13 7 -13 16
0 12 6 15 25 10 27 -7 34 11 13 32 -14 14 -42 16 -33 2 10 -15 -56 -71 -70
-60 -7 6 -14 8 -17 5 -2 -3 -4 5 -3 18 1 12 -2 28 -8 35 -15 19 3 31 54 37 24
2 61 7 82 11 25 4 37 2 37 -5 0 -7 -4 -9 -10 -6 -20 12 -30 -5 -18 -28 7 -12
14 -26 14 -32 1 -5 2 -14 3 -18 0 -5 8 -1 17 7 18 19 37 21 32 4 -2 -6 -18
-16 -35 -22 -50 -17 -47 -23 15 -22 57 1 82 9 82 27 0 17 -30 9 -31 -8 0 -13
-3 -12 -10 6 -10 24 3 51 23 51 6 0 5 -7 -2 -15 -15 -18 0 -20 19 -3 11 11 13
10 8 -3 -7 -20 8 -46 17 -30 4 6 3 11 -3 11 -20 0 11 48 35 54 13 4 23 12 21
19 -1 6 4 11 11 9 8 -1 13 5 12 15 -4 39 -1 46 15 33 12 -10 15 -9 15 8 0 11
-6 23 -12 25 -7 3 3 6 23 6 35 1 36 0 42 -42 9 -62 2 -231 -12 -287 0 -3 -10
-6 -20 -6 -11 0 -17 4 -15 8 3 4 -7 8 -23 8 -22 0 -25 -2 -13 -10 11 -7 3 -10
-30 -12 -25 -1 -56 -3 -70 -4 -14 -1 -47 -3 -73 -3 -32 -1 -46 -5 -42 -12 5
-7 25 -8 56 -4 54 8 60 0 29 -36 -13 -16 -19 -19 -20 -10 0 11 -6 8 -20 -7
-26 -27 -50 -28 -83 -2 -14 11 -31 20 -38 20 -10 0 -9 5 3 17 15 14 19 14 34
2 14 -12 16 -11 13 6 -4 17 -14 20 -72 23 -46 2 -67 -1 -67 -9 0 -8 13 -10 44
-6 l45 6 -17 -29 c-19 -32 -10 -50 17 -33 14 9 20 7 29 -8 14 -22 -3 -69 -25
-69 -17 0 -17 -19 1 -26 8 -3 14 -19 14 -37 0 -18 8 -48 17 -67 15 -34 16 -34
10 -5 -16 79 -17 91 -1 104 9 8 16 18 16 23 0 6 -7 5 -15 -2 -24 -20 -26 -7
-5 28 22 35 49 41 74 16 9 -8 16 -12 16 -8 0 3 7 1 15 -6 22 -19 19 -43 -5
-35 -45 14 -74 -30 -50 -76 13 -23 77 -26 106 -4 36 27 50 16 18 -15 -41 -42
-94 -50 -123 -19 -21 23 -26 18 -22 -24 1 -9 -4 -17 -13 -17 -9 0 -16 -4 -16
-10 0 -17 18 -11 33 10 9 13 20 18 31 14 20 -8 21 -28 1 -44 -22 -18 -19 -57
5 -65 23 -7 27 -35 6 -35 -39 0 -20 -85 34 -146 32 -37 36 -49 20 -59 -25 -15
-7 -24 19 -9 28 16 30 16 59 -5 17 -11 41 -21 54 -20 19 1 18 2 -8 10 -37 11
-61 35 -66 68 -1 13 -14 30 -28 38 l-25 15 23 -20 c21 -19 32 -70 13 -58 -5 4
-12 0 -14 -6 -3 -8 -6 -6 -6 4 -1 10 -14 32 -30 50 -37 44 -51 71 -51 104 0
22 4 25 21 21 15 -4 19 -2 15 10 -3 8 -6 21 -6 28 0 8 -9 17 -20 20 -26 8 -26
41 1 48 16 4 19 11 14 26 -4 15 -2 21 9 21 10 0 16 -12 19 -38 l4 -37 1 37 c2
29 9 42 41 67 47 37 51 38 79 8 22 -23 22 -24 4 -40 -22 -20 -43 -22 -59 -6
-18 18 -45 3 -34 -18 5 -10 16 -33 23 -51 8 -19 20 -32 30 -32 13 0 18 -8 18
-30 0 -17 7 -47 15 -67 11 -25 12 -39 5 -48 -15 -18 2 -27 35 -19 25 6 31 15
18 27 -3 4 -14 0 -23 -8 -15 -14 -17 -12 -17 18 0 17 -6 47 -14 65 -10 25 -11
39 -2 62 6 17 7 30 2 30 -5 0 -9 -4 -9 -10 0 -5 -9 -10 -21 -10 -12 0 -17 4
-14 11 4 6 -1 17 -11 24 -14 10 -15 14 -5 15 11 0 9 5 -5 22 l-19 22 25 -17
c13 -9 28 -17 33 -17 13 0 67 60 67 75 0 25 20 66 29 61 5 -4 2 -28 -7 -56
-16 -50 -16 -51 8 -73 l23 -22 -16 27 c-25 40 -22 53 8 34 31 -20 54 -20 77 1
17 15 18 15 20 -3 2 -34 3 -39 12 -52 12 -19 1 -25 -23 -12 -27 14 -27 -3 -1
-21 15 -10 22 -27 24 -59 2 -25 7 -53 10 -62 6 -13 3 -15 -13 -11 -12 3 -21 1
-21 -6 0 -14 47 -14 56 0 3 6 1 15 -6 19 -8 5 -13 36 -15 86 -4 140 -4 144
-19 144 -7 0 -19 -7 -26 -15 -31 -37 -103 2 -80 44 13 24 14 25 43 9 12 -6 38
-14 57 -17 30 -5 37 -12 52 -51 22 -57 23 -170 3 -238 l-16 -52 -30 16 c-23
12 -30 21 -29 42 5 66 -3 82 -11 22 -7 -57 -13 -69 -44 -98 -20 -18 -39 -31
-44 -28 -4 3 6 32 22 66 32 64 39 140 19 190 -8 19 -9 10 -5 -40 4 -64 4 -64
-12 -37 -9 16 -20 47 -25 70 -7 40 -8 40 -9 9 -1 -18 10 -54 22 -80 16 -32 22
-55 17 -72 -7 -24 -7 -24 -23 14 -10 22 -20 36 -24 33 -3 -4 -1 -12 4 -19 22
-27 25 -74 5 -98 l-18 -23 -37 33 c-35 30 -52 55 -77 109 -6 13 -13 21 -16 18
-8 -7 50 -109 73 -129 30 -26 122 -88 130 -88 5 0 -1 7 -12 15 -17 14 -18 17
-3 31 14 14 21 14 52 3 28 -10 36 -18 33 -31 -3 -10 -1 -18 4 -18 5 0 9 7 9
16 0 11 5 14 16 10 9 -3 18 -6 20 -6 3 0 2 -4 -1 -10 -3 -6 4 -10 16 -10 21 0
21 1 5 19 -10 11 -28 22 -41 25 -63 16 -76 25 -65 45 8 17 15 18 39 10 27 -9
94 -69 77 -69 -4 0 -1 -7 8 -15 24 -24 35 -18 39 23 l4 37 1 -37 c2 -30 6 -38
21 -38 11 0 23 5 27 11 5 8 9 8 14 -1 5 -8 10 -2 14 16 5 18 3 30 -3 32 -6 2
-8 9 -4 15 3 6 6 36 5 66 l0 56 18 -70 c10 -38 19 -82 19 -97 1 -17 7 -28 15
-28 15 0 13 59 -4 110 -25 76 -34 134 -35 212 0 73 -2 87 -15 83 -12 -4 -14 5
-12 51 3 46 6 53 18 43 8 -6 14 -19 14 -28 0 -9 11 -33 25 -53 14 -20 25 -44
25 -53 0 -8 6 -18 13 -20 8 -4 13 -29 13 -70 1 -38 -2 -62 -8 -59 -5 3 -6 -5
-3 -18 4 -19 11 -99 14 -180 1 -13 9 -18 31 -18 28 0 29 2 24 33 -4 17 -15 52
-25 76 -23 52 -24 80 -5 123 8 18 18 53 21 78 8 66 18 77 54 64 25 -10 30 -9
35 5 12 31 34 63 38 54 3 -4 4 -23 3 -40 0 -18 5 -35 12 -37 7 -3 13 -14 13
-25 0 -11 11 -33 25 -49 14 -17 25 -33 25 -37 0 -4 6 -13 13 -19 20 -16 49
-155 41 -193 l-7 -33 357 0 356 0 0 2430 0 2430 -2430 0 -2430 0 0 -2430z
m3675 2260 c17 7 25 6 25 -1 0 -6 7 -9 15 -5 8 3 15 0 15 -5 0 -6 9 -9 19 -6
11 2 39 0 63 -5 53 -11 100 -10 112 2 6 6 14 10 19 10 5 0 1 -8 -9 -17 -16
-17 -16 -18 2 -23 31 -8 49 -23 62 -53 7 -15 17 -25 22 -22 12 7 14 26 3 24
-20 -3 -24 2 -13 16 16 20 30 19 30 -1 0 -9 6 -14 13 -11 6 2 18 -3 25 -12 12
-15 13 -15 9 0 -3 9 1 16 9 16 8 0 14 -6 14 -14 0 -12 13 -17 33 -14 4 0 7 -3
7 -9 0 -5 5 -10 11 -10 5 0 7 4 4 10 -3 6 1 7 9 4 12 -5 13 -11 5 -25 -7 -13
-6 -19 1 -19 6 0 9 -4 6 -8 -3 -5 8 -16 25 -26 16 -9 29 -24 29 -32 0 -8 5
-14 11 -14 6 0 22 -9 36 -20 14 -11 20 -20 14 -20 -8 0 -6 -6 5 -17 11 -11 13
-18 5 -21 -6 -2 -11 -8 -11 -14 0 -5 9 -6 20 -3 11 4 20 2 20 -4 0 -6 -7 -12
-15 -12 -29 -3 -33 -4 -42 -13 -4 -5 -4 -7 2 -4 12 7 30 -11 31 -34 1 -13 -3
-15 -22 -8 -26 10 -27 6 -26 -62 1 -30 -15 -38 -24 -13 -4 8 -10 12 -15 9 -5
-3 -9 0 -9 5 0 6 -18 14 -41 17 -22 4 -47 13 -55 21 -12 13 -14 12 -14 -6 0
-12 -5 -21 -11 -21 -6 0 -9 7 -5 15 3 9 0 15 -9 15 -8 0 -15 9 -15 20 0 14 -6
19 -21 17 -12 -1 -24 4 -26 11 -3 6 4 13 14 13 10 1 -4 5 -32 10 -57 8 -150
34 -180 49 -67 33 -117 42 -281 46 -95 3 -190 0 -215 -5 -36 -8 -230 -32 -276
-34 -7 0 -13 -5 -13 -10 0 -5 -11 -7 -25 -5 -14 3 -25 1 -25 -3 0 -5 -13 -9
-28 -9 -16 0 -32 -3 -36 -7 -6 -6 -70 -14 -138 -17 -14 -1 -24 -4 -21 -8 2 -5
-10 -8 -26 -8 -17 0 -31 -4 -31 -9 0 -4 -21 -11 -46 -14 -26 -2 -49 -9 -53
-15 -3 -5 -26 -15 -51 -22 -25 -7 -63 -21 -86 -31 -22 -11 -47 -19 -56 -19 -8
0 -23 -9 -32 -19 -10 -10 -34 -22 -54 -26 -42 -7 -202 -84 -202 -97 0 -4 -5
-8 -11 -8 -17 0 -89 -78 -90 -98 -1 -28 -10 -76 -15 -81 -2 -2 -4 19 -4 47 0
31 5 52 13 55 6 2 -1 4 -18 3 -16 0 -38 -10 -47 -21 -10 -11 -17 -15 -18 -8 0
6 6 14 13 16 9 4 9 6 -1 6 -7 1 -18 -11 -24 -25 -8 -17 -18 -24 -30 -21 -12 4
-18 0 -18 -12 0 -19 -56 -71 -76 -71 -7 0 -25 -16 -41 -35 -15 -20 -38 -37
-50 -38 -12 0 -20 -4 -17 -8 2 -4 -3 -12 -10 -18 -12 -10 -13 -8 -9 8 4 16 1
21 -16 21 -11 0 -21 -4 -21 -10 0 -5 8 -7 18 -3 9 3 -12 -22 -47 -56 -35 -34
-68 -60 -74 -58 -7 2 -20 -5 -31 -14 -10 -10 -22 -16 -26 -14 -9 6 -20 -30
-20 -64 0 -23 -1 -23 -18 -8 -20 18 -37 23 -28 8 3 -5 -8 -11 -24 -15 -17 -3
-30 -12 -30 -20 0 -19 -42 -62 -95 -98 -22 -15 -52 -39 -67 -53 -15 -14 -32
-25 -38 -25 -6 0 -9 -4 -5 -9 3 -6 0 -13 -8 -18 -7 -4 -34 -34 -61 -66 -27
-32 -51 -55 -54 -52 -3 2 1 12 9 22 8 10 -4 5 -26 -12 -22 -16 -46 -37 -53
-47 -16 -22 -36 -24 -28 -3 5 15 -9 22 -16 7 -3 -9 -151 -102 -161 -102 -12 0
-85 -82 -90 -100 -3 -13 5 -21 34 -29 22 -7 39 -18 39 -25 0 -8 7 -17 16 -20
9 -3 14 -12 11 -20 -4 -9 7 -23 27 -37 29 -19 33 -27 29 -55 -4 -29 -1 -34 21
-40 14 -3 26 -12 26 -20 0 -8 0 -17 0 -21 0 -5 -4 -8 -9 -8 -5 0 -13 -4 -18
-9 -5 -5 -3 -6 5 -2 8 5 12 0 12 -15 0 -18 -2 -19 -15 -9 -13 11 -14 10 -9 -4
3 -9 10 -16 14 -16 10 0 17 -21 25 -73 8 -49 -14 -75 -50 -59 -27 12 -51 -7
-42 -33 8 -18 -13 -32 -23 -15 -8 12 -12 8 -23 -23 -5 -13 -2 -17 10 -15 9 2
18 -3 20 -9 3 -8 -4 -13 -17 -13 -12 0 -28 -7 -36 -15 -23 -23 -40 -18 -19 5
10 11 15 23 12 27 -12 11 -37 -31 -31 -50 4 -11 -3 -26 -19 -40 -36 -33 -48
-32 -42 3 6 32 -11 42 -22 14 -3 -9 -13 -14 -24 -11 -12 3 -19 0 -19 -8 0 -28
-65 -44 -74 -18 -6 13 -9 13 -30 0 -26 -18 -38 -13 -29 11 4 10 2 13 -5 8 -7
-4 -12 -2 -12 5 0 7 -8 9 -21 6 -12 -3 -32 1 -45 9 -22 15 -23 15 -19 -5 2
-14 -1 -18 -11 -14 -7 3 -12 9 -9 13 3 5 1 11 -5 15 -6 4 -8 11 -5 16 4 5 -2
9 -12 9 -14 0 -15 2 -4 9 7 5 10 14 6 20 -5 9 -11 7 -22 -6 -13 -17 -14 -16
-8 11 5 23 3 27 -9 23 -12 -5 -16 1 -17 23 -2 46 -2 46 -29 69 -20 16 -22 22
-11 30 15 10 7 31 -14 31 -17 0 -25 22 -18 49 3 12 1 21 -3 21 -14 0 -16 91
-3 107 9 10 9 17 1 25 -15 15 -15 29 0 25 17 -3 34 61 21 82 -12 19 -2 47 25
68 8 7 15 25 14 41 0 22 8 34 43 57 24 17 41 33 38 37 -2 5 2 8 10 8 18 0 29
-47 13 -54 -6 -2 -3 -5 8 -5 13 -1 17 4 13 18 -3 12 1 22 11 26 13 5 11 10
-13 30 -19 17 -23 25 -12 25 8 0 23 8 33 17 21 22 80 45 117 47 32 1 35 11 8
28 -21 13 -16 20 31 51 26 16 27 16 21 0 -6 -15 -4 -16 9 -5 8 7 24 10 34 6
15 -4 16 -4 5 4 -8 6 -11 17 -7 28 6 16 8 16 16 4 8 -12 10 -10 10 8 0 20 10
27 33 23 4 0 7 4 7 10 0 5 4 8 9 4 5 -3 16 2 24 10 9 8 21 15 27 15 6 0 13 7
16 15 4 8 10 12 16 9 5 -3 17 1 27 10 10 9 29 15 42 14 15 -2 23 2 22 9 -2 7
3 10 10 7 17 -6 69 13 79 29 6 9 8 9 8 -1 0 -7 5 -10 10 -7 6 4 7 12 4 18 -5
8 -3 8 7 0 17 -17 30 -16 23 1 -3 7 2 16 10 19 9 4 16 13 16 22 0 12 5 13 18
7 9 -4 23 -7 30 -6 6 1 17 2 22 3 6 0 10 6 10 11 0 6 11 27 24 48 13 21 26 47
29 58 4 16 5 16 6 -4 1 -20 5 -22 38 -19 34 4 38 7 39 36 2 39 18 59 47 57 27
-2 46 14 39 33 -4 10 -1 12 8 6 9 -6 11 -4 5 5 -4 7 -2 16 6 21 10 6 5 9 -16
9 -29 1 -29 1 -10 16 11 9 33 21 48 26 24 9 28 14 22 37 -6 25 -6 25 8 7 14
-18 16 -19 31 -3 9 9 22 14 29 11 7 -2 21 4 32 15 15 18 16 23 4 38 -8 9 -9
14 -2 10 6 -4 14 -1 17 5 5 10 7 10 12 1 11 -24 26 -14 20 13 -6 22 -4 25 9
20 11 -4 20 3 29 24 9 23 15 27 24 18 9 -9 12 -8 12 5 0 9 7 17 15 17 8 0 15
4 15 9 0 5 9 7 20 4 13 -4 20 0 20 10 0 8 10 18 23 21 l22 6 -24 14 -23 13 31
6 c22 5 29 11 25 22 -7 17 11 21 21 5 10 -16 19 -12 30 11 9 19 34 25 28 7 -1
-3 12 -2 30 3 17 5 33 9 34 9 2 0 3 5 3 10 0 6 -8 10 -17 10 -9 0 -13 3 -10 7
4 3 23 6 42 5 21 -1 33 3 30 8 -3 6 -1 10 4 10 6 0 11 -6 11 -12 0 -7 5 -5 11
5 5 9 18 17 27 17 13 0 14 2 4 9 -11 7 -11 9 2 14 10 4 13 13 9 23 -5 14 0 16
41 12 33 -4 44 -2 37 5 -16 16 -13 27 8 27 10 0 30 9 44 20 31 25 37 25 37 3
0 -11 3 -14 8 -7 4 5 21 9 38 9 17 -1 31 3 31 9 -1 33 5 46 18 46 8 0 15 -5
15 -11 0 -5 5 -7 11 -3 6 3 15 0 20 -7 8 -12 11 -11 22 2 6 8 20 18 30 22 9 3
17 11 17 17 0 7 -6 8 -19 0 -29 -15 -39 -12 -17 5 11 8 30 15 42 15 13 0 26 5
29 10 5 8 11 8 20 0 10 -8 14 -5 19 13 8 33 58 36 52 3 -2 -11 -1 -15 1 -8 3
6 13 12 23 12 10 0 22 9 25 21 5 14 12 18 23 14 18 -8 31 -9 72 -6 20 1 22 3
10 11 -13 8 -12 10 5 11 11 1 24 1 28 0 55 -10 66 -8 57 9 -12 22 20 54 47 47
14 -4 14 -5 -4 -6 -13 0 -23 -7 -23 -16 0 -11 8 -13 30 -8 22 4 30 2 30 -8 1
-8 7 0 15 16 7 17 14 24 14 18 1 -10 7 -10 27 -1 21 10 27 9 35 -3 9 -12 11
-12 16 0 5 11 7 11 15 0 8 -11 9 -10 4 4 -6 20 2 47 15 47 5 0 9 -6 9 -14 0
-7 6 -19 14 -25 11 -9 15 -7 19 10 5 18 11 21 37 17 21 -3 34 0 37 9 6 16 35
17 52 1 10 -11 14 -10 22 5 8 13 14 15 30 7 10 -6 19 -7 18 -3 -3 20 2 24 16
13 13 -10 19 -10 34 4 15 13 20 14 24 4 3 -10 9 -11 25 -1 12 7 23 9 27 3 3
-5 19 -8 35 -8 17 1 33 -2 36 -5 4 -4 18 3 32 13 17 14 29 17 37 10 6 -5 15
-7 18 -3 4 3 7 1 7 -5 0 -7 5 -12 11 -12 5 0 7 5 4 10 -3 6 3 10 14 10 11 0
24 -8 30 -17 8 -15 12 -16 22 -5 7 6 24 12 37 12 13 0 30 7 38 15 14 13 17 13
30 0 11 -10 21 -12 39 -5z m37 -432 c-10 -10 -15 -10 -22 2 -6 9 -5 17 3 22
18 11 33 -10 19 -24z m603 -38 c-3 -5 -14 -10 -23 -9 -14 0 -13 2 3 9 27 11
27 11 20 0z m-995 -10 c0 -5 -4 -10 -10 -10 -5 0 -10 5 -10 10 0 6 5 10 10 10
6 0 10 -4 10 -10z m-25 -11 c10 -15 -1 -23 -20 -15 -9 3 -13 10 -10 16 8 13
22 13 30 -1z m550 1 c3 -5 -1 -10 -9 -10 -9 0 -16 5 -16 10 0 6 4 10 9 10 6 0
13 -4 16 -10z m365 0 c0 -5 -6 -10 -14 -10 -8 0 -18 5 -21 10 -3 6 3 10 14 10
12 0 21 -4 21 -10z m-1296 -8 c8 -13 -11 -35 -23 -28 -16 10 -14 36 3 36 8 0
17 -4 20 -8z m326 -2 c0 -5 -7 -10 -15 -10 -8 0 -15 5 -15 10 0 6 7 10 15 10
8 0 15 -4 15 -10z m100 -5 c-7 -8 -16 -12 -21 -9 -13 8 -1 24 18 24 13 0 13
-3 3 -15z m802 3 c-9 -9 -15 -9 -24 0 -9 9 -7 12 12 12 19 0 21 -3 12 -12z
m-752 -2 c0 -3 -4 -8 -10 -11 -5 -3 -10 -1 -10 4 0 6 5 11 10 11 6 0 10 -2 10
-4z m538 -14 c2 -7 -3 -12 -12 -12 -9 0 -16 7 -16 16 0 17 22 14 28 -4z m-759
-13 c-16 -10 -23 -4 -14 10 3 6 11 8 17 5 6 -4 5 -9 -3 -15z m471 6 c0 -8 -7
-15 -15 -15 -16 0 -20 12 -8 23 11 12 23 8 23 -8z m-820 -5 c0 -5 -3 -9 -7 -8
-5 1 -23 -6 -41 -16 -18 -9 -39 -15 -45 -13 -7 2 8 13 33 25 53 24 60 25 60
12z m527 -2 c14 1 24 -6 28 -19 8 -25 -3 -39 -15 -20 -6 10 -30 14 -90 13 -45
-1 -86 -5 -91 -8 -5 -3 -9 -17 -9 -32 0 -15 -4 -33 -9 -40 -13 -22 -19 7 -9
45 11 43 75 75 133 66 22 -4 50 -6 62 -5z m357 -27 c4 -5 -3 -7 -14 -4 -23 6
-26 13 -6 13 8 0 17 -4 20 -9z m94 -19 c2 -7 -6 -12 -17 -12 -21 0 -27 11 -14
24 9 9 26 2 31 -12z m-1108 -5 c-8 -8 -42 -19 -75 -26 -33 -7 -69 -15 -80 -17
-16 -4 -17 -3 -5 5 8 5 45 15 82 22 38 7 68 16 68 21 0 4 5 8 12 8 8 0 8 -4
-2 -13z m423 -12 c-3 -9 -8 -14 -10 -11 -3 3 -2 9 2 15 9 16 15 13 8 -4z
m-245 -6 c-2 -6 -8 -10 -13 -10 -5 0 -11 4 -13 10 -2 6 4 11 13 11 9 0 15 -5
13 -11z m694 -14 c0 -5 -5 -11 -11 -13 -6 -2 -11 4 -11 13 0 9 5 15 11 13 6
-2 11 -8 11 -13z m-1092 -31 c0 -9 -5 -14 -12 -12 -18 6 -21 28 -4 28 9 0 16
-7 16 -16z m1220 1 c0 -8 -7 -15 -15 -15 -16 0 -20 12 -8 23 11 12 23 8 23 -8z
m-1005 -15 c3 -5 -4 -11 -17 -12 -42 -2 -47 -3 -54 -11 -4 -4 -17 -7 -28 -6
-19 0 -18 1 4 10 14 6 33 12 44 15 10 2 21 6 24 9 8 8 20 6 27 -5z m1185 0
c-19 -13 -30 -13 -30 0 0 6 10 10 23 10 18 0 19 -2 7 -10z m-1040 -29 c0 -6
-4 -13 -10 -16 -5 -3 -10 1 -10 9 0 9 5 16 10 16 6 0 10 -4 10 -9z m1010 -16
c-33 -19 -50 -18 -26 0 11 8 27 15 35 15 10 -1 7 -6 -9 -15z m-1334 -22 c-10
-10 -19 5 -10 18 6 11 8 11 12 0 2 -7 1 -15 -2 -18z m209 14 c-22 -15 -54 -26
-102 -33 -58 -10 -35 5 27 17 33 6 63 16 66 20 3 5 10 9 17 9 6 0 3 -6 -8 -13z
m805 -17 c0 -5 -7 -10 -15 -10 -8 0 -15 5 -15 10 0 6 7 10 15 10 8 0 15 -4 15
-10z m267 -12 c-3 -8 -6 -5 -6 6 -1 11 2 17 5 13 3 -3 4 -12 1 -19z m-1037 4
c0 -4 -10 -13 -22 -21 -23 -14 -23 -14 -4 8 20 22 26 25 26 13z m-202 -37 c6
-6 -8 -25 -19 -25 -5 0 -9 6 -9 14 0 8 -6 16 -12 19 -7 2 -2 2 12 0 14 -3 27
-6 28 -8z m52 -5 c0 -5 -2 -10 -4 -10 -3 0 -8 5 -11 10 -3 6 -1 10 4 10 6 0
11 -4 11 -10z m100 -21 c0 -5 -7 -9 -15 -9 -15 0 -20 12 -9 23 8 8 24 -1 24
-14z m542 -2 c6 -9 8 -9 8 0 0 7 12 11 30 10 16 -1 30 -5 30 -9 0 -5 6 -8 14
-8 18 0 82 -71 91 -101 7 -22 25 -67 46 -114 15 -33 28 -120 19 -123 -5 -2 -6
-10 -3 -18 3 -7 9 -11 14 -8 5 3 9 -2 9 -10 0 -9 4 -16 9 -16 5 0 12 -30 17
-67 12 -93 12 -105 2 -125 -6 -12 -5 -18 2 -18 7 0 10 -17 8 -47 -3 -43 -6
-47 -36 -55 -17 -5 -31 -14 -29 -20 1 -8 -22 -18 -58 -26 -79 -18 -136 -31
-160 -39 -41 -13 10 41 71 75 82 47 100 77 40 69 -34 -5 -106 -48 -138 -84
-46 -50 -56 -161 -21 -223 9 -15 12 -17 8 -5 -4 11 -9 38 -12 60 -5 36 -2 41
24 52 15 7 52 26 82 43 59 33 121 40 141 15 7 -8 9 -15 4 -15 -5 -1 0 -8 12
-18 20 -17 18 -17 -52 -14 -75 4 -136 -9 -166 -36 -19 -16 -25 -38 -9 -27 5 3
17 -5 25 -17 l16 -22 0 27 c0 15 5 27 10 27 6 0 10 -9 10 -20 0 -24 40 -42 84
-38 25 2 33 9 41 36 14 47 40 39 40 -13 0 -37 -3 -41 -35 -52 -19 -7 -29 -12
-21 -12 8 -1 11 -4 8 -8 -4 -3 2 -12 13 -20 10 -7 17 -20 14 -27 -4 -9 3 -16
18 -18 33 -5 65 40 64 92 -1 30 3 40 15 40 15 0 20 -21 20 -77 0 -92 1 -150 3
-211 2 -46 -2 -82 -11 -98 -7 -15 -13 -38 -13 -53 0 -16 -8 -31 -21 -39 -20
-13 -20 -14 -2 -27 15 -12 16 -17 6 -34 -14 -23 -16 -134 -4 -166 4 -11 4 -35
0 -54 -5 -22 -4 -40 3 -48 7 -9 7 -13 -1 -13 -7 0 -10 -4 -7 -9 10 -16 -14
-115 -31 -131 -15 -14 -16 -13 -4 3 17 21 8 22 -13 1 -12 -12 -13 -20 -6 -35
7 -13 7 -19 0 -19 -5 0 -10 -7 -10 -15 0 -8 -4 -15 -8 -15 -13 0 -11 -34 2
-42 6 -4 -1 -8 -16 -8 -16 0 -28 -5 -28 -12 0 -6 -6 -4 -12 5 -14 18 -16 12
-19 -60 -1 -13 -5 -20 -10 -17 -5 3 -9 -4 -9 -15 0 -15 -4 -19 -17 -14 -12 5
-14 3 -8 -8 7 -12 6 -12 -7 -1 -13 10 -16 9 -21 -8 -3 -11 0 -20 5 -20 6 0 5
-7 -2 -15 -11 -13 -15 -13 -21 -3 -8 12 -13 4 -10 -14 0 -5 -3 -8 -9 -8 -6 0
-6 -9 0 -26 13 -33 13 -37 -2 -28 -8 5 -9 2 -5 -9 3 -10 2 -17 -4 -17 -6 0 -7
-5 -3 -12 5 -7 3 -8 -7 -2 -23 14 -35 13 -35 -5 -1 -70 -5 -105 -13 -92 -6 9
-10 10 -16 2 -4 -7 -2 -18 4 -25 8 -10 7 -17 -4 -26 -9 -7 -14 -19 -11 -27 3
-8 1 -11 -4 -8 -6 3 -10 1 -10 -5 0 -6 -4 -9 -9 -6 -5 4 -7 -4 -3 -16 4 -17 2
-20 -11 -15 -12 4 -17 1 -18 -11 0 -12 -2 -13 -6 -3 -4 10 -11 7 -27 -10 -24
-27 -46 -35 -46 -17 0 7 -5 5 -11 -4 -9 -17 -12 -17 -34 -2 -17 11 -25 12 -25
4 0 -7 -8 -9 -19 -5 -11 3 -22 1 -26 -5 -11 -17 -33 -11 -37 10 -4 30 -22 25
-26 -6 -2 -17 0 -24 7 -20 7 5 8 1 4 -10 -6 -15 -8 -14 -17 7 -6 13 -19 30
-28 37 -10 7 -18 21 -19 30 0 14 -2 13 -9 -3 -6 -15 -9 -16 -9 -4 -1 9 -8 30
-17 47 -8 18 -13 35 -10 40 2 4 -4 8 -14 9 -11 1 -23 -3 -27 -9 -4 -8 -9 -5
-13 7 -6 18 -7 18 -27 -2 l-21 -21 -6 30 c-4 20 -10 27 -18 22 -10 -6 -11 -4
0 7 16 17 16 37 0 21 -7 -7 -16 -12 -22 -12 -5 0 -6 3 -3 7 4 3 1 13 -6 22
-10 14 -10 14 5 3 15 -12 17 -11 15 7 0 11 -5 17 -9 15 -4 -3 -8 3 -8 13 0 15
-2 16 -11 3 -8 -11 -9 -6 -4 20 l5 35 -14 -30 c-8 -16 -15 -24 -15 -17 -1 7
-6 10 -12 7 -6 -4 -9 -1 -8 6 1 8 -1 22 -6 32 -6 15 -10 16 -16 5 -7 -10 -9
-9 -9 5 0 9 -4 17 -9 17 -5 0 -7 -10 -3 -22 3 -14 1 -19 -6 -14 -8 5 -10 2 -6
-9 5 -11 2 -14 -9 -9 -9 3 -18 15 -20 27 -3 14 -5 10 -6 -12 -1 -26 -5 -32
-17 -27 -8 3 -12 2 -9 -4 3 -6 2 -10 -4 -10 -5 0 -11 6 -14 13 -3 9 -8 9 -18
-2 -12 -12 -12 -13 1 -7 8 4 6 0 -4 -8 -25 -20 -29 -16 -16 20 10 28 10 29 -8
9 -9 -11 -26 -27 -36 -35 -18 -14 -18 -13 -11 10 7 24 7 24 -8 5 -19 -24 -28
-17 -37 32 -7 37 -8 37 -9 7 -1 -23 -7 -33 -21 -37 -15 -4 -20 0 -20 15 0 14
-5 18 -16 14 -13 -5 -15 -1 -10 18 8 32 -11 44 -23 14 l-10 -23 0 23 c-1 13
-7 22 -16 22 -8 0 -15 3 -16 8 -2 23 -8 45 -15 50 -4 4 -4 -5 -2 -20 3 -16 1
-28 -3 -28 -5 0 -9 12 -9 26 0 14 -4 23 -10 19 -5 -3 -7 -13 -4 -23 5 -14 4
-14 -4 -2 -6 8 -9 17 -7 21 8 12 -60 76 -79 73 -15 -2 -17 2 -11 23 5 23 4 25
-9 14 -14 -12 -20 -9 -18 10 0 3 -8 11 -20 18 -11 7 -17 8 -13 2 3 -6 1 -11
-4 -11 -6 0 -11 5 -11 11 0 6 -6 9 -14 6 -11 -5 -12 1 -3 30 6 19 17 37 24 40
7 3 13 10 13 16 0 5 -9 2 -20 -8 -19 -17 -20 -17 -28 6 -5 13 -7 30 -5 37 4 8
-1 10 -13 5 -18 -6 -18 -5 0 15 11 12 16 25 13 29 -4 3 -7 1 -7 -5 0 -7 -5
-12 -11 -12 -6 0 -8 9 -4 21 5 15 4 19 -4 15 -6 -4 -11 -16 -11 -26 0 -10 -4
-21 -9 -24 -5 -4 -7 4 -4 15 5 19 3 21 -20 17 -24 -5 -25 -3 -15 16 7 13 13
16 16 8 7 -21 22 -13 20 12 -2 21 -5 23 -32 15 -19 -5 -34 -5 -40 1 -7 7 -4
10 7 10 9 0 17 5 17 10 0 6 -5 10 -11 10 -6 0 -8 7 -5 16 4 12 1 14 -14 9 -18
-6 -19 -4 -10 20 7 19 7 24 -2 19 -8 -5 -9 0 -6 14 4 12 3 20 -2 17 -4 -3 -10
2 -14 10 -3 8 -1 15 5 15 5 0 2 11 -6 24 -9 13 -14 37 -12 52 2 16 -2 41 -9
56 -16 31 -18 128 -5 175 7 25 6 31 -4 27 -11 -4 -11 3 -4 37 6 23 13 47 16
52 3 6 1 7 -5 3 -7 -4 -12 -1 -12 9 0 9 3 14 8 12 4 -3 8 32 9 76 2 104 21
164 48 158 11 -2 27 -4 35 -5 8 0 18 -5 22 -11 4 -6 8 -2 8 8 0 15 2 16 14 5
7 -7 11 -19 8 -27 -3 -9 -1 -12 6 -7 7 4 12 16 12 27 0 12 7 19 18 18 10 0 12
-3 5 -6 -14 -5 -18 -53 -5 -53 5 0 14 10 20 23 10 19 11 16 5 -18 -6 -42 -13
-59 -13 -33 0 8 -7 15 -14 15 -11 0 -12 -5 -5 -18 5 -10 6 -25 3 -33 -3 -9 -1
-16 5 -16 6 0 11 6 11 14 0 8 7 17 16 20 8 3 13 9 10 14 -2 4 -1 14 3 21 6 9
10 5 15 -13 4 -16 11 -24 17 -20 8 4 8 0 0 -14 -6 -12 -17 -24 -24 -28 -9 -6
-9 -4 1 8 11 14 10 16 -7 11 -27 -7 -36 -33 -12 -33 11 0 22 -6 24 -12 3 -8 6
-7 6 4 1 9 5 20 11 23 5 3 7 0 4 -8 -3 -8 3 -20 12 -28 15 -12 16 -12 9 10 -4
15 -3 21 3 17 6 -4 7 7 1 31 -4 21 -6 39 -3 42 2 2 4 -1 4 -7 0 -7 4 -12 10
-12 5 0 7 7 3 15 -3 9 -13 15 -22 14 -27 -2 -37 1 -24 9 8 5 7 21 -7 60 -10
29 -14 50 -9 47 5 -4 9 -2 9 4 0 5 3 18 7 28 6 15 5 16 -9 5 -10 -8 -19 -9
-22 -3 -3 5 -1 12 4 14 6 3 5 4 -2 3 -7 -2 -12 -14 -11 -27 1 -13 -1 -18 -4
-11 -7 19 -33 -5 -33 -32 -1 -19 -2 -19 -11 -3 -7 11 -7 23 0 35 6 9 11 13 11
7 0 -5 6 2 14 17 8 15 12 37 10 50 -4 20 -3 20 4 4 6 -14 11 -16 16 -8 4 7 13
10 19 6 7 -3 1 3 -12 14 -14 11 -31 18 -38 15 -15 -6 -18 23 -3 32 6 4 8 11 5
16 -4 5 -1 17 5 26 8 14 10 14 9 3 -3 -29 1 -41 11 -35 6 4 8 11 4 16 -3 6 2
16 12 24 16 12 20 11 26 -3 4 -11 7 -6 7 16 1 17 -3 32 -9 32 -5 0 -10 4 -10
10 0 5 6 9 13 7 7 -1 11 6 9 20 -2 13 5 27 17 35 12 8 18 18 14 21 -3 4 0 7 9
7 8 0 23 9 33 20 10 11 21 17 25 15 5 -3 11 1 13 7 3 7 6 3 6 -9 1 -13 6 -23
12 -23 5 0 8 4 4 9 -3 6 3 15 12 21 16 10 16 11 -2 5 -16 -5 -18 -4 -7 6 6 7
12 24 12 37 0 26 95 126 110 117 5 -3 14 4 20 15 6 11 17 20 25 20 8 0 19 8
25 18 8 12 13 14 17 4 4 -10 8 -10 19 -1 17 14 19 33 2 23 -10 -5 -10 -3 0 7
10 11 14 11 21 1 5 -9 19 -1 49 27 23 22 51 43 64 47 13 4 37 17 54 30 17 13
36 24 43 24 6 0 23 8 38 17 25 16 43 23 70 25 7 1 10 5 8 9 -6 9 24 21 36 13
5 -3 9 -2 9 3 0 9 33 25 128 60 102 38 118 42 200 49 43 3 78 7 79 8 8 7 119
-7 125 -17z m-1017 -40 c16 -13 15 -14 -14 -15 -30 -1 -39 7 -24 21 9 10 17 9
38 -6z m-28 -34 c12 8 86 -18 91 -31 1 -5 12 -8 22 -5 11 3 20 1 20 -5 0 -12
-47 -25 -61 -16 -6 4 -6 11 2 20 9 11 8 14 -5 14 -9 0 -16 -5 -16 -12 0 -6 -3
-9 -6 -5 -3 3 -17 1 -31 -4 -23 -8 -25 -7 -20 11 4 15 -1 22 -19 26 -24 6 -30
15 -17 28 4 4 13 0 20 -9 6 -10 16 -15 20 -12z m83 17 c8 -5 11 -13 6 -17 -5
-4 -11 -2 -13 5 -3 6 -9 10 -14 6 -5 -3 -9 0 -9 5 0 13 10 14 30 1z m-166 -47
c-9 -9 -12 -19 -7 -20 5 -2 9 -16 8 -31 -1 -15 0 -19 2 -10 2 9 11 22 20 30
15 11 16 10 9 -12 -4 -14 -8 -31 -8 -37 -2 -18 -35 -16 -41 1 -3 8 -3 24 0 36
4 17 2 21 -8 18 -8 -3 -13 -16 -11 -31 1 -14 -2 -28 -7 -32 -6 -3 -8 -13 -5
-23 5 -14 4 -14 -4 -3 -6 9 -7 22 -2 31 4 8 6 27 3 41 -4 20 1 31 18 43 32 22
56 22 33 -1z m59 -32 c-2 -3 -8 0 -14 6 -6 6 -19 9 -28 6 -9 -3 -5 4 9 16 l25
20 6 -22 c3 -12 4 -24 2 -26z m127 -21 c0 -5 -5 -10 -11 -10 -5 0 -7 5 -4 10
3 6 8 10 11 10 2 0 4 -4 4 -10z m-165 -78 c-3 -3 -11 0 -18 7 -9 10 -8 11 6 5
10 -3 15 -9 12 -12z m45 -6 c0 -3 -4 -8 -10 -11 -5 -3 -10 -1 -10 4 0 6 5 11
10 11 6 0 10 -2 10 -4z m-410 -41 c0 -8 -7 -15 -15 -15 -8 0 -15 7 -15 15 0 8
7 15 15 15 8 0 15 -7 15 -15z m72 -30 c0 -5 -5 -11 -11 -13 -6 -2 -11 4 -11
13 0 9 5 15 11 13 6 -2 11 -8 11 -13z m-151 -38 c-10 -9 -11 -8 -5 6 3 10 9
15 12 12 3 -3 0 -11 -7 -18z m219 8 c0 -8 -4 -15 -10 -15 -5 0 -10 7 -10 15 0
8 5 15 10 15 6 0 10 -7 10 -15z m-243 -27 c-3 -8 -6 -5 -6 6 -1 11 2 17 5 13
3 -3 4 -12 1 -19z m93 -7 c0 -12 -12 -26 -30 -35 -16 -8 -30 -13 -30 -10 0 10
39 42 44 37 3 -4 6 1 6 10 0 10 2 17 5 17 3 0 5 -9 5 -19z m-129 -25 c-13 -13
-32 -27 -43 -29 -20 -6 -20 -6 0 14 12 10 26 19 32 19 5 0 10 5 10 10 0 6 5
10 12 10 6 0 1 -11 -11 -24z m200 -5 c-13 -23 -55 -51 -78 -51 -13 0 -9 5 12
18 17 11 36 26 44 35 18 23 34 22 22 -2z m79 -12 c0 -5 -4 -9 -10 -9 -5 0 -10
7 -10 16 0 8 5 12 10 9 6 -3 10 -10 10 -16z m-220 -23 c0 -2 -9 -6 -20 -9 -11
-3 -20 -1 -20 4 0 5 9 9 20 9 11 0 20 -2 20 -4z m210 -21 c0 -8 -4 -15 -9 -15
-13 0 -22 16 -14 24 11 11 23 6 23 -9z m-396 -30 c3 -9 0 -15 -9 -15 -16 0
-27 14 -18 24 10 10 21 7 27 -9z m301 5 c-3 -5 -11 -10 -16 -10 -6 0 -7 5 -4
10 3 6 11 10 16 10 6 0 7 -4 4 -10z m-173 -15 c0 -5 -5 -11 -11 -13 -6 -2 -11
4 -11 13 0 9 5 15 11 13 6 -2 11 -8 11 -13z m113 6 c7 -12 -12 -24 -25 -16
-11 7 -4 25 10 25 5 0 11 -4 15 -9z m279 -56 c-4 -8 -13 -15 -22 -15 -13 0
-12 3 4 15 24 18 25 18 18 0z m-54 -45 c0 -5 -2 -10 -4 -10 -3 0 -8 5 -11 10
-3 6 -1 10 4 10 6 0 11 -4 11 -10z m-504 -62 c4 -6 3 -8 -2 -5 -6 3 -16 1 -24
-4 -12 -9 -13 -11 -1 -16 11 -5 11 -7 0 -14 -12 -8 -11 -11 1 -19 10 -7 0 -8
-35 -4 -27 4 -57 13 -65 20 -13 13 -9 14 25 10 22 -2 34 -2 27 1 -6 2 -10 9
-6 14 3 5 -1 9 -8 10 -18 1 32 17 59 18 12 1 25 -4 29 -11z m-172 -28 c-10 -4
-21 -6 -24 -3 -8 7 24 22 34 16 5 -4 1 -10 -10 -13z m53 14 c-3 -3 -12 -4 -19
-1 -8 3 -5 6 6 6 11 1 17 -2 13 -5z m158 -14 c13 -6 15 -9 5 -9 -8 0 -22 4
-30 9 -18 12 -2 12 25 0z m-46 -64 c-9 -8 -10 -7 -5 7 3 10 7 24 7 30 1 7 3 4
6 -7 3 -10 -1 -23 -8 -30z m2102 -129 c-17 -17 -25 21 -10 51 l13 27 4 -34 c2
-18 -1 -38 -7 -44z m-2019 -38 c5 -16 14 -26 19 -23 5 3 9 0 9 -5 0 -6 -5 -11
-11 -11 -8 0 -8 -4 0 -13 8 -10 7 -14 -4 -14 -8 0 -15 6 -15 13 0 7 -4 14 -8
16 -13 5 -52 75 -46 81 12 12 46 -15 56 -44z m-1400 -121 c-6 -6 -7 0 -4 19 5
21 7 23 10 9 2 -10 0 -22 -6 -28z m1323 33 c3 -5 1 -12 -5 -16 -5 -3 -10 1
-10 9 0 18 6 21 15 7z m-21 -16 c3 -8 3 -22 0 -30 -7 -18 9 -19 36 -3 31 20
48 -4 21 -31 -45 -45 -69 -95 -66 -139 2 -23 6 -46 9 -51 8 -13 -4 -41 -18
-41 -27 1 -47 49 -45 112 1 78 17 168 30 168 5 0 8 3 8 8 -4 25 15 31 25 7z
m60 -140 c-9 -14 -17 -46 -17 -70 0 -49 -9 -51 -25 -6 -9 25 -6 33 20 65 34
42 46 47 22 11z m80 -70 c-6 -16 -24 -21 -24 -7 0 11 11 22 21 22 5 0 6 -7 3
-15z m-54 -32 c0 -12 -4 -23 -10 -23 -5 0 -11 -8 -11 -17 -1 -10 -4 -4 -8 12
-9 37 -5 52 14 52 9 0 15 -10 15 -24z m98 -35 c-4 -22 -5 -22 -18 4 -11 23
-11 30 1 44 13 16 14 16 17 -4 2 -12 2 -32 0 -44z m-57 -44 c25 -30 48 -113
40 -142 -4 -15 -6 -33 -3 -40 3 -10 -3 -13 -19 -10 -22 3 -24 8 -25 57 0 43
-5 57 -22 71 -23 19 -30 60 -11 60 5 0 7 5 4 10 -10 16 21 11 36 -6z m-1287
-219 c-4 -8 -8 -15 -10 -15 -2 0 -4 7 -4 15 0 8 4 15 10 15 5 0 7 -7 4 -15z
m1272 -54 c-3 -4 1 -17 9 -27 9 -12 14 -14 15 -6 0 7 4 11 9 8 5 -4 8 -17 6
-31 -1 -14 1 -28 6 -30 4 -3 7 -19 7 -36 -1 -17 3 -34 8 -37 13 -9 12 -85 -1
-94 -6 -5 -2 -8 8 -8 10 0 17 -6 15 -12 -5 -15 15 -38 34 -38 7 0 0 -9 -15
-19 -19 -12 -24 -20 -15 -23 11 -4 10 -8 -2 -23 -14 -17 -14 -18 10 -5 14 7
22 9 18 5 -4 -4 -3 -17 2 -29 5 -14 3 -28 -6 -41 -15 -21 -18 -36 -6 -34 4 1
14 1 22 0 12 -1 11 -4 -3 -12 -9 -6 -27 -7 -40 -4 -17 5 -19 4 -7 -4 12 -9 11
-11 -7 -11 -13 0 -28 9 -35 19 -6 10 -18 17 -25 14 -9 -3 -11 0 -8 10 4 8 0
21 -8 28 -24 24 -36 55 -31 76 3 12 1 24 -5 27 -8 5 -8 13 0 28 7 12 7 18 1
14 -9 -5 -14 11 -27 97 -18 113 -21 137 -15 137 4 0 10 13 13 29 5 24 12 30
39 34 18 2 34 5 36 5 2 1 1 -2 -2 -7z m-186 -95 c0 -2 -7 -6 -15 -10 -8 -3
-15 -1 -15 4 0 6 7 10 15 10 8 0 15 -2 15 -4z m3 -61 c8 -8 17 -11 21 -8 11
11 6 -12 -7 -28 -16 -21 -41 -29 -58 -18 -12 7 -11 11 4 26 11 11 17 13 17 5
0 -7 5 -10 10 -7 8 5 7 11 -1 21 -6 7 -16 11 -22 7 -6 -3 -7 -1 -3 5 10 16 22
15 39 -3z m502 -235 c3 -5 -3 -10 -15 -10 -12 0 -18 5 -15 10 3 6 10 10 15 10
5 0 12 -4 15 -10z m1552 -42 c-3 -8 -6 -5 -6 6 -1 11 2 17 5 13 3 -3 4 -12 1
-19z m-1745 -30 c-7 -7 -12 -8 -12 -2 0 6 3 14 7 17 3 4 9 5 12 2 2 -3 -1 -11
-7 -17z m18 -53 c-7 -9 -10 -28 -7 -48 3 -17 3 -26 0 -19 -2 6 -9 10 -13 7
-13 -8 -5 42 10 59 7 9 15 16 17 16 3 0 0 -7 -7 -15z m-331 -17 c11 -15 11
-18 -1 -18 -7 0 -14 10 -15 21 -1 12 -1 20 0 18 2 -2 9 -12 16 -21z m241 8 c0
-3 -4 -8 -10 -11 -5 -3 -10 -1 -10 4 0 6 5 11 10 11 6 0 10 -2 10 -4z m34 -12
c20 -8 21 -54 1 -54 -17 0 -39 36 -30 50 7 12 8 12 29 4z m63 -16 c-3 -8 -6
-5 -6 6 -1 11 2 17 5 13 3 -3 4 -12 1 -19z m343 18 c0 -2 -11 -6 -25 -8 -13
-3 -22 -1 -19 3 5 9 44 13 44 5z m-321 -57 c-16 -10 -23 -4 -14 10 3 6 11 8
17 5 6 -4 5 -9 -3 -15z m1 -23 c0 -3 -4 -8 -10 -11 -5 -3 -10 -1 -10 4 0 6 5
11 10 11 6 0 10 -2 10 -4z m788 -91 c-3 -3 -9 2 -12 12 -6 14 -5 15 5 6 7 -7
10 -15 7 -18z m-688 -115 c0 -5 -2 -10 -4 -10 -3 0 -8 5 -11 10 -3 6 -1 10 4
10 6 0 11 -4 11 -10z m-520 -45 c0 -8 -4 -15 -10 -15 -5 0 -10 7 -10 15 0 8 5
15 10 15 6 0 10 -7 10 -15z m624 -47 c-4 -6 -10 -5 -15 3 -14 22 -10 33 6 19
8 -7 12 -17 9 -22z m-624 13 c0 -6 -5 -13 -12 -17 -6 -4 -8 -3 -4 4 3 5 0 13
-6 15 -8 3 -6 6 5 6 9 1 17 -3 17 -8z m626 -31 c14 0 22 -4 19 -10 -10 -16
-45 -12 -63 7 -16 16 -16 16 1 10 10 -4 30 -7 43 -7z m31 -45 c0 -8 -4 -15 -9
-15 -4 0 -8 7 -8 15 0 8 4 15 8 15 5 0 9 -7 9 -15z m1477 -237 c-3 -4 -12 -8
-20 -8 -8 0 -13 4 -10 8 3 5 12 9 20 9 8 0 13 -4 10 -9z m186 -80 c0 -4 8 -8
19 -8 26 0 171 -99 181 -124 4 -12 4 -26 -1 -32 -5 -6 -6 -14 -2 -17 3 -4 1
-7 -5 -7 -6 0 -20 -10 -32 -22 -15 -16 -32 -22 -67 -22 l-47 -1 -18 48 c-10
26 -13 47 -8 47 6 0 5 9 -2 20 -7 11 -19 20 -27 20 -11 0 -10 -4 4 -13 10 -8
14 -16 9 -19 -14 -9 -56 11 -49 22 3 5 1 10 -4 10 -6 0 -11 4 -11 9 0 5 14 8
31 7 26 -2 28 0 15 9 -9 7 -13 14 -10 17 3 3 -4 21 -15 39 -11 18 -18 36 -15
40 6 10 54 -11 54 -23z m-3026 -10 c-29 -35 -47 -47 -67 -48 -29 0 -15 23 29
47 51 28 62 28 38 1z m2676 8 c0 -2 -7 -6 -15 -10 -8 -3 -15 -1 -15 4 0 6 7
10 15 10 8 0 15 -2 15 -4z m60 -15 c0 -17 -18 -21 -24 -6 -3 9 0 15 9 15 8 0
15 -4 15 -9z m-68 -23 c-7 -7 -12 -8 -12 -2 0 14 12 26 19 19 2 -3 -1 -11 -7
-17z m-32 -13 c-13 -16 -53 -16 -67 -1 -4 5 2 7 14 4 12 -3 30 0 40 7 22 17
30 11 13 -10z m300 -5 c0 -10 5 -22 10 -25 6 -3 10 -17 10 -30 0 -13 3 -25 8
-27 11 -5 39 -82 34 -96 -2 -7 -20 -12 -41 -12 l-38 0 0 110 c0 60 3 107 8
104 5 -3 9 -14 9 -24z m-3098 -21 c-21 -54 -32 -97 -32 -122 0 -19 -5 -27 -17
-26 -11 0 -13 3 -6 6 9 3 10 10 4 21 -4 9 -7 27 -6 40 1 12 -3 22 -8 22 -6 0
0 9 13 20 13 11 20 20 15 20 -4 0 -2 6 4 13 6 8 7 18 3 22 -4 5 1 5 11 2 10
-4 17 -2 17 5 0 6 2 9 5 6 3 -3 2 -16 -3 -29z m2228 -29 c0 -21 -15 -27 -25
-10 -7 12 2 30 16 30 5 0 9 -9 9 -20z m138 -42 c1 -26 -1 -29 -9 -16 -5 9 -6
23 -3 32 9 23 11 20 12 -16z m58 -1 c12 -12 36 -8 28 5 -4 7 -3 8 5 4 6 -4 9
-12 6 -17 -4 -5 -1 -9 6 -9 25 0 -7 -21 -36 -24 -17 -2 -32 -11 -36 -22 -5
-14 -7 -10 -6 13 1 18 6 33 10 33 5 0 5 5 2 10 -4 6 -11 7 -17 4 -6 -4 -8 -2
-5 4 7 11 32 11 43 -1z m-98 -29 c2 -18 9 -28 20 -29 14 0 13 -2 -3 -9 -28
-12 -57 -12 -50 0 3 6 -2 10 -13 10 -15 0 -18 6 -14 31 4 26 8 30 31 27 20 -2
27 -9 29 -30z m117 -39 c11 -17 -1 -21 -15 -4 -8 9 -8 15 -2 15 6 0 14 -5 17
-11z m1182 -29 c7 -10 9 -21 5 -24 -4 -2 -12 7 -19 20 -13 29 -3 32 14 4z
m-167 -30 c0 -5 -14 -5 -32 1 -18 5 -35 9 -38 10 -3 0 4 4 15 8 21 9 55 -3 55
-19z m-430 16 c0 -3 -4 -8 -10 -11 -5 -3 -10 -1 -10 4 0 6 5 11 10 11 6 0 10
-2 10 -4z m120 -8 c0 -5 -22 -8 -50 -8 -27 0 -50 3 -50 8 0 4 23 7 50 7 28 0
50 -3 50 -7z m174 -14 c15 -6 15 -8 2 -18 -9 -6 -17 -33 -20 -64 -2 -29 -7
-56 -11 -60 -4 -4 -5 5 -3 21 3 15 2 27 -2 27 -4 0 -6 13 -5 30 1 16 -2 27 -7
24 -4 -3 -8 2 -8 10 0 8 8 20 18 25 21 13 17 12 36 5z m-454 -34 c-6 -11 -16
-17 -25 -14 -27 11 -15 34 17 34 15 0 17 -3 8 -20z m43 3 c-4 -10 -13 -28 -20
-39 -13 -20 -11 -24 13 -41 16 -12 23 -23 16 -27 -13 -8 -74 42 -67 55 4 5 0
6 -8 3 -8 -3 -18 0 -22 6 -12 20 4 23 30 6 23 -15 25 -15 25 -1 0 22 18 55 30
55 5 0 6 -8 3 -17z m67 7 c0 -5 -4 -10 -9 -10 -6 0 -13 5 -16 10 -3 6 1 10 9
10 9 0 16 -4 16 -10z m21 -13 c-10 -9 -11 -8 -5 6 3 10 9 15 12 12 3 -3 0 -11
-7 -18z m132 6 c-4 -9 0 -11 11 -7 9 3 16 1 16 -4 0 -17 -37 -24 -60 -12 -12
6 -27 9 -34 7 -7 -3 -17 3 -23 13 -10 16 -6 17 42 17 41 0 52 -3 48 -14z
m-144 -41 c22 -20 41 -41 41 -45 0 -10 -99 65 -100 76 0 16 19 5 59 -31z m79
7 c24 -2 24 -2 5 -6 -13 -2 -23 -12 -23 -20 0 -14 -3 -14 -20 2 -16 15 -17 21
-8 39 11 19 13 19 16 4 2 -11 14 -19 30 -19z m292 6 c11 -13 10 -14 -4 -9 -9
3 -16 10 -16 15 0 13 6 11 20 -6z m-413 -21 c3 -8 1 -20 -4 -25 -12 -12 -48
14 -39 29 10 17 36 15 43 -4z m-120 -15 c2 -8 -1 -21 -7 -29 -14 -22 -34 2
-25 30 7 23 28 22 32 -1z m338 1 c14 -15 15 -20 4 -21 -8 0 -4 -5 9 -11 24
-12 29 -33 10 -41 -7 -3 -4 -6 7 -6 15 -1 16 -4 7 -13 -7 -7 -12 -20 -12 -31
0 -11 -5 -17 -12 -14 -8 2 -12 18 -10 40 3 28 -1 38 -18 47 -11 6 -18 15 -15
19 13 21 -72 -11 -91 -34 -30 -37 -38 -18 -9 21 14 18 25 39 25 46 0 11 2 11
9 0 6 -10 10 -10 21 3 17 21 53 19 75 -5z m239 5 c-4 -8 -8 -15 -10 -15 -2 0
-4 7 -4 15 0 8 4 15 10 15 5 0 7 -7 4 -15z m329 -36 c3 -10 1 -19 -4 -19 -5 0
-9 6 -9 14 0 7 -7 19 -15 26 -8 7 -15 17 -15 23 0 16 37 -22 43 -44z m-958 31
c3 -5 -1 -10 -10 -10 -9 0 -13 5 -10 10 3 6 8 10 10 10 2 0 7 -4 10 -10z m170
-65 c-14 -25 -30 -45 -35 -45 -15 0 -12 16 6 30 8 8 22 30 31 49 8 20 17 30
20 23 3 -7 -7 -32 -22 -57z m435 56 c0 -5 -8 -11 -18 -13 -10 -3 -19 0 -19 6
0 7 9 13 19 13 10 1 18 -2 18 -6z m-536 -51 c-10 -18 -20 -47 -23 -64 -8 -35
-31 -48 -31 -17 0 29 53 131 63 122 4 -4 0 -22 -9 -41z m162 25 c3 -8 3 -19
-1 -25 -10 -16 -35 7 -28 26 7 18 22 18 29 -1z m401 0 c-4 -8 -2 -17 4 -20 5
-4 7 -11 3 -16 -4 -6 -11 -6 -20 2 -16 13 -19 44 -4 34 6 -3 10 -1 10 4 0 6 3
11 6 11 3 0 4 -7 1 -15z m-150 -1 c-3 -3 -12 -4 -19 -1 -8 3 -5 6 6 6 11 1 17
-2 13 -5z m-358 -18 c14 -17 -9 -39 -33 -30 -19 7 -20 16 -4 32 15 15 23 15
37 -2z m225 3 c14 -7 28 -18 31 -27 11 -28 -6 -26 -38 6 -34 34 -32 39 7 21z
m242 -1 c4 -7 3 -8 -4 -4 -7 4 -12 3 -12 -3 0 -5 8 -14 17 -19 13 -8 10 -10
-14 -9 -29 2 -30 3 -16 24 18 26 19 27 29 11z m-205 -96 c16 -24 29 -47 29
-53 0 -5 7 -12 16 -16 11 -4 13 -13 9 -33 -3 -15 0 -43 8 -61 14 -37 15 -64 2
-119 -5 -19 -7 -48 -6 -63 1 -15 -3 -34 -9 -42 -10 -12 -15 -12 -36 1 -21 14
-25 42 -4 29 4 -3 6 5 2 17 -3 11 -1 19 4 16 10 -7 10 -3 14 119 2 90 -9 135
-52 202 -23 37 -34 46 -59 47 -35 2 -44 8 -34 24 5 8 12 6 25 -5 12 -11 20
-13 25 -6 3 6 -1 14 -9 17 -9 3 -16 11 -16 17 0 16 57 -41 91 -91z m-151 57
c14 -9 42 -20 62 -24 49 -9 63 -40 15 -32 -39 6 -139 66 -131 79 6 9 13 6 54
-23z m784 -25 c36 -60 86 -199 86 -238 0 -36 -6 -31 -14 9 -9 51 -44 145 -66
174 -11 16 -20 34 -20 40 0 6 -4 11 -8 11 -8 0 -32 43 -32 56 0 18 29 -10 54
-52z m-534 36 c0 -5 -5 -10 -11 -10 -5 0 -7 5 -4 10 3 6 8 10 11 10 2 0 4 -4
4 -10z m-482 -8 c9 -6 10 -16 1 -40 -9 -27 -14 -30 -30 -22 -21 12 -25 40 -7
58 14 14 19 14 36 4z m665 -22 c3 -11 2 -20 -2 -20 -10 0 -31 37 -24 44 9 9
20 -2 26 -24z m-526 -23 c23 -18 43 -38 43 -44 0 -7 -24 5 -52 27 -29 22 -56
40 -60 40 -5 0 -8 5 -8 11 0 16 27 4 77 -34z m49 28 c4 -8 3 -23 0 -32 -6 -15
-8 -15 -23 -1 -16 17 -12 48 7 48 6 0 13 -7 16 -15z m-116 -25 c0 -5 -4 -10
-10 -10 -5 0 -10 5 -10 10 0 6 5 10 10 10 6 0 10 -4 10 -10z m560 -30 c4 0 11
-8 14 -17 6 -15 4 -15 -14 2 -11 10 -19 25 -19 34 1 13 2 13 6 -1 2 -10 8 -18
13 -18z m-194 -5 c8 -21 -6 -41 -17 -24 -12 19 -11 39 1 39 6 0 13 -7 16 -15z
m244 -19 c0 -3 -4 -8 -10 -11 -5 -3 -10 -1 -10 4 0 6 5 11 10 11 6 0 10 -2 10
-4z m-209 -49 c-5 -5 -7 -17 -4 -26 4 -9 3 -13 -1 -10 -14 13 -14 46 0 46 9 0
11 -4 5 -10z m425 -44 c-3 -3 -1 -15 5 -27 10 -20 10 -20 -5 -2 -9 11 -16 31
-16 45 1 23 2 24 11 8 6 -10 8 -21 5 -24z m37 -13 c3 -11 2 -20 -3 -20 -4 0
-10 11 -12 25 -6 29 7 25 15 -5z m-446 -102 c-3 -8 -6 -5 -6 6 -1 11 2 17 5
13 3 -3 4 -12 1 -19z m455 -40 c-9 -9 -12 -7 -12 12 0 19 3 21 12 12 9 -9 9
-15 0 -24z m-452 -8 c0 -5 -5 -10 -11 -10 -5 0 -7 5 -4 10 3 6 8 10 11 10 2 0
4 -4 4 -10z m484 -33 c17 -28 17 -28 -1 -19 -10 6 -19 20 -20 32 -1 12 -1 21
1 19 1 -2 10 -17 20 -32z m-474 -27 c0 -5 -7 -10 -16 -10 -8 0 -12 5 -9 10 3
6 10 10 16 10 5 0 9 -4 9 -10z m15 -60 c3 -5 1 -10 -4 -10 -6 0 -11 5 -11 10
0 6 2 10 4 10 3 0 8 -4 11 -10z"/>
<path d="M3410 4665 c7 -9 15 -13 17 -11 7 7 -7 26 -19 26 -6 0 -6 -6 2 -15z"/>
<path d="M3220 4654 c0 -8 5 -12 10 -9 6 4 8 11 5 16 -9 14 -15 11 -15 -7z"/>
<path d="M3808 4653 c7 -3 16 -2 19 1 4 3 -2 6 -13 5 -11 0 -14 -3 -6 -6z"/>
<path d="M3960 4595 c0 -8 2 -15 4 -15 2 0 6 7 10 15 3 8 1 15 -4 15 -6 0 -10
-7 -10 -15z"/>
<path d="M4110 4330 c0 -5 5 -10 10 -10 6 0 10 5 10 10 0 6 -4 10 -10 10 -5 0
-10 -4 -10 -10z"/>
<path d="M4180 4270 c0 -6 4 -9 9 -5 5 3 12 1 15 -3 3 -5 17 -7 31 -4 33 6 27
12 -19 18 -22 2 -36 0 -36 -6z"/>
<path d="M1787 3924 c-7 -8 3 -34 13 -34 9 0 8 26 -1 35 -3 3 -8 2 -12 -1z"/>
<path d="M1571 3722 c-1 -7 -5 -11 -10 -8 -4 3 -17 -4 -27 -15 -16 -18 -16
-19 -1 -13 13 5 16 2 11 -11 -6 -15 -4 -16 14 -6 28 15 31 22 21 46 -4 11 -8
14 -8 7z"/>
<path d="M1595 3710 c4 -6 11 -8 16 -5 14 9 11 15 -7 15 -8 0 -12 -5 -9 -10z"/>
<path d="M980 3494 c0 -1 6 -7 14 -13 10 -9 15 -8 19 2 3 8 -3 13 -14 13 -11
0 -19 -1 -19 -2z"/>
<path d="M395 3170 c-11 -5 -16 -9 -11 -9 5 -1 2 -9 -5 -18 -13 -17 -13 -17 7
0 11 9 28 17 37 17 9 0 17 5 17 10 0 12 -17 12 -45 0z"/>
<path d="M336 3118 c3 -4 9 -8 15 -8 5 0 9 4 9 8 0 5 -7 9 -15 9 -8 0 -12 -4
-9 -9z"/>
<path d="M621 3121 c-9 -6 -10 -11 -2 -15 6 -4 8 -13 5 -19 -5 -9 -4 -9 5 -1
17 16 10 46 -8 35z"/>
<path d="M650 3090 c0 -11 2 -20 5 -20 2 0 9 9 15 20 9 16 8 20 -5 20 -8 0
-15 -9 -15 -20z"/>
<path d="M281 3053 c-1 -12 -7 -24 -13 -26 -10 -4 -10 -6 0 -6 15 -1 26 23 19
41 -3 7 -6 3 -6 -9z"/>
<path d="M225 2980 c-3 -5 -2 -10 4 -10 5 0 13 5 16 10 3 6 2 10 -4 10 -5 0
-13 -4 -16 -10z"/>
<path d="M825 2600 c5 -14 8 -35 7 -47 -2 -25 15 -40 29 -26 7 7 3 24 -11 49
-28 49 -35 56 -25 24z"/>
<path d="M3240 4156 c0 -2 11 -6 25 -8 13 -3 22 -1 19 3 -5 9 -44 13 -44 5z"/>
<path d="M2341 3544 c0 -11 3 -14 6 -6 3 7 2 16 -1 19 -3 4 -6 -2 -5 -13z"/>
<path d="M2752 3220 c0 -14 2 -19 5 -12 2 6 2 18 0 25 -3 6 -5 1 -5 -13z"/>
<path d="M2770 3216 c0 -9 5 -16 11 -16 5 0 8 -4 5 -9 -7 -11 49 -25 64 -16 5
3 10 -1 10 -9 0 -8 5 -18 12 -22 7 -4 8 -3 4 4 -5 8 0 12 13 12 12 0 21 5 21
10 0 6 0 13 0 18 0 4 -9 6 -20 6 -11 -1 -20 4 -20 10 0 6 -15 12 -32 12 -18 1
-41 5 -50 9 -13 5 -18 3 -18 -9z"/>
<path d="M2900 3141 c0 -5 6 -11 13 -14 8 -3 6 -7 -6 -12 -11 -5 -25 -1 -37
10 -11 10 -20 13 -20 7 0 -5 -8 -8 -19 -5 -10 3 -22 0 -25 -6 -4 -6 -2 -11 4
-11 6 0 8 -5 5 -10 -5 -8 -11 -7 -21 1 -11 9 -14 8 -14 -5 0 -20 -17 -20 -50
-1 -14 8 -41 14 -60 14 l-35 0 35 -17 c19 -10 51 -23 70 -29 19 -6 53 -18 75
-27 33 -12 43 -12 61 -1 17 11 24 11 45 -1 13 -7 20 -14 14 -14 -5 0 -4 -4 4
-9 20 -13 51 -2 44 16 -3 8 0 19 7 23 9 6 7 11 -9 19 -11 7 -21 18 -21 26 0 8
-7 15 -16 15 -10 0 -14 6 -11 14 3 8 -1 17 -9 20 -21 8 -24 8 -24 -3z"/>
<path d="M2532 3117 c-8 -10 -2 -12 31 -8 33 3 38 5 22 12 -29 11 -41 11 -53
-4z"/>
<path d="M2465 3076 c-29 -18 -42 -21 -47 -13 -5 8 -8 6 -8 -5 0 -13 -8 -18
-27 -19 -25 0 -26 -1 -8 -9 18 -8 17 -9 -7 -9 -26 -1 -42 -21 -17 -21 8 0 8
-5 -1 -15 -19 -23 -5 -47 24 -39 18 4 27 1 35 -15 6 -11 10 -24 10 -28 -3 -14
13 -43 23 -43 7 0 7 5 0 13 -9 10 -1 13 38 11 28 -2 50 2 50 7 0 5 -6 9 -13 9
-8 0 -22 8 -31 19 -16 17 -16 19 6 24 13 4 25 1 30 -6 4 -7 28 -12 53 -12 53
0 75 20 75 67 0 33 14 35 54 9 17 -11 34 -17 38 -15 5 3 15 1 23 -6 8 -7 15
-7 19 -1 3 5 -15 21 -40 35 -61 34 -153 43 -213 22 -24 -9 -49 -16 -56 -16
-20 0 -10 38 16 59 32 27 23 26 -26 -3z"/>
<path d="M3239 2703 c-3 -18 -2 -38 2 -44 11 -18 16 3 9 41 l-6 35 -5 -32z"/>
<path d="M2120 2665 c-8 -9 -8 -15 -2 -15 12 0 26 19 19 26 -2 2 -10 -2 -17
-11z"/>
<path d="M3256 2615 c4 -8 8 -15 10 -15 2 0 4 7 4 15 0 8 -4 15 -10 15 -5 0
-7 -7 -4 -15z"/>
<path d="M3281 2564 c0 -11 3 -14 6 -6 3 7 2 16 -1 19 -3 4 -6 -2 -5 -13z"/>
<path d="M1751 2544 c0 -11 3 -14 6 -6 3 7 2 16 -1 19 -3 4 -6 -2 -5 -13z"/>
<path d="M2890 2526 c0 -2 9 -6 20 -9 11 -3 18 -1 14 4 -5 9 -34 13 -34 5z"/>
<path d="M2842 2394 c-3 -45 24 -103 52 -109 41 -9 51 -9 90 -1 42 8 67 -8 78
-52 6 -23 -16 -81 -33 -83 -5 -1 -13 -3 -19 -4 -5 -1 -13 -3 -17 -4 -5 -1 -1
-6 7 -11 11 -7 11 -10 2 -10 -7 0 -10 -5 -7 -11 5 -6 12 -4 20 7 11 16 13 16
23 -2 10 -18 13 -18 39 -4 15 9 29 26 31 38 4 28 22 19 22 -11 1 -25 20 -54
35 -53 6 1 11 -9 13 -22 3 -21 7 -23 43 -18 51 7 69 -1 69 -29 0 -13 5 -27 12
-31 6 -4 8 -3 5 3 -4 6 0 16 7 22 12 10 15 8 19 -6 2 -10 3 -4 2 12 -3 40 -29
101 -49 112 -30 17 -90 153 -67 153 17 0 91 85 91 104 -1 18 -3 17 -16 -6 -8
-15 -23 -32 -34 -38 -12 -6 -18 -15 -15 -21 4 -5 -3 -9 -15 -9 -12 0 -30 -5
-41 -10 -16 -9 -24 -6 -47 17 -15 16 -34 39 -42 51 -17 26 -35 27 -83 7 -43
-18 -50 -19 -42 -5 9 15 -4 12 -21 -5 -20 -20 -31 -19 -51 5 -10 11 -23 20
-30 20 -7 0 -13 6 -13 14 0 32 -16 23 -18 -10z"/>
<path d="M3485 2320 c-3 -5 -1 -10 4 -10 6 0 11 5 11 10 0 6 -2 10 -4 10 -3 0
-8 -4 -11 -10z"/>
<path d="M1726 2255 c-3 -8 -1 -15 4 -15 6 0 10 7 10 15 0 8 -2 15 -4 15 -2 0
-6 -7 -10 -15z"/>
<path d="M3043 2215 c0 -8 4 -15 9 -15 4 0 8 4 8 9 0 6 -4 12 -8 15 -5 3 -9
-1 -9 -9z"/>
<path d="M1780 2150 c0 -5 5 -10 10 -10 6 0 10 5 10 10 0 6 -4 10 -10 10 -5 0
-10 -4 -10 -10z"/>
<path d="M2870 2145 c0 -8 -5 -15 -11 -15 -6 0 -9 -5 -7 -11 6 -19 22 -10 25
16 2 14 1 25 -2 25 -3 0 -5 -7 -5 -15z"/>
<path d="M1785 2113 c2 -10 4 -21 4 -25 1 -5 5 -8 9 -8 13 0 7 43 -5 47 -6 2
-10 -4 -8 -14z"/>
<path d="M1846 2085 c-3 -8 -1 -15 4 -15 6 0 10 7 10 15 0 8 -2 15 -4 15 -2 0
-6 -7 -10 -15z"/>
<path d="M2850 2076 c0 -18 10 -25 26 -19 20 7 17 20 -6 26 -12 3 -20 0 -20
-7z"/>
<path d="M2817 2060 c-10 -12 -24 -19 -32 -16 -9 3 -12 0 -9 -8 3 -7 -2 -19
-11 -26 -34 -28 -16 -33 109 -26 79 4 127 3 130 -3 6 -9 58 -7 161 4 17 2 34
4 39 4 5 1 3 8 -4 16 -7 8 -9 15 -4 15 5 1 -7 9 -26 19 -34 17 -36 17 -72 -1
-45 -22 -68 -23 -68 -3 0 22 -46 29 -93 15 -78 -25 -95 -24 -99 5 l-3 26 -18
-21z"/>
<path d="M3223 1875 c0 -8 4 -12 9 -9 5 3 6 10 3 15 -9 13 -12 11 -12 -6z"/>
<path d="M1974 1855 c-10 -8 -14 -15 -8 -15 6 0 17 7 24 15 16 19 9 19 -16 0z"/>
<path d="M3074 1813 c-4 -21 -7 -46 -6 -55 0 -10 -4 -17 -11 -15 -6 1 -11 -9
-11 -23 -1 -14 4 -24 11 -23 7 2 10 -4 6 -13 -4 -10 2 -17 16 -21 14 -3 20
-11 17 -20 -3 -7 1 -16 10 -20 8 -3 13 -12 10 -19 -6 -17 20 -19 30 -2 5 7 3
8 -6 3 -10 -6 -11 -3 -5 16 4 13 7 35 7 49 0 14 3 19 5 13 8 -22 30 -14 29 10
-1 15 4 22 17 21 21 -2 23 12 2 20 -12 4 -13 11 -5 32 6 15 8 35 5 45 -6 17
-8 18 -22 3 -15 -14 -17 -14 -25 0 -8 14 -11 14 -28 -2 -11 -9 -20 -23 -21
-32 0 -9 -2 -10 -5 -3 -3 7 -1 21 5 31 8 15 7 23 -4 32 -11 9 -15 5 -21 -27z
m112 -29 c-4 -9 -9 -15 -11 -12 -3 3 -3 13 1 22 4 9 9 15 11 12 3 -3 3 -13 -1
-22z m-56 -144 c0 -5 -4 -10 -10 -10 -5 0 -10 5 -10 10 0 6 5 10 10 10 6 0 10
-4 10 -10z"/>
<path d="M3005 1793 c-4 -28 -11 -43 -21 -43 -8 0 -14 -10 -15 -22 0 -22 -1
-22 -8 -3 -5 11 -6 25 -3 30 3 6 -2 3 -12 -5 -10 -8 -13 -16 -8 -18 7 -2 8
-12 2 -28 -7 -19 -6 -24 5 -24 8 0 15 6 16 13 0 6 4 3 9 -8 5 -11 9 -14 9 -7
1 7 6 10 11 7 6 -3 10 -1 10 5 0 6 5 8 10 5 9 -6 15 30 11 64 -2 7 2 10 8 6 7
-4 11 5 11 24 0 17 7 34 16 39 12 6 8 9 -14 9 -28 0 -31 -4 -37 -44z m5 -58
c-7 -9 -15 -13 -19 -10 -3 3 1 10 9 15 21 14 24 12 10 -5z"/>
<path d="M3200 1836 c0 -2 7 -6 15 -10 8 -3 15 -1 15 4 0 6 -7 10 -15 10 -8 0
-15 -2 -15 -4z"/>
<path d="M2973 1775 c0 -8 4 -12 9 -9 5 3 6 10 3 15 -9 13 -12 11 -12 -6z"/>
<path d="M2530 1655 c0 -5 5 -17 10 -25 5 -8 10 -10 10 -5 0 6 -5 17 -10 25
-5 8 -10 11 -10 5z"/>
<path d="M3235 1639 c-4 -6 -5 -12 -2 -15 2 -3 7 2 10 11 7 17 1 20 -8 4z"/>
<path d="M2650 1471 c0 -5 5 -13 10 -16 6 -3 10 -2 10 4 0 5 -4 13 -10 16 -5
3 -10 2 -10 -4z"/>
<path d="M2771 1404 c0 -11 3 -14 6 -6 3 7 2 16 -1 19 -3 4 -6 -2 -5 -13z"/>
<path d="M2810 1359 c0 -11 4 -18 10 -14 5 3 7 12 3 20 -7 21 -13 19 -13 -6z"/>
<path d="M1430 1725 c0 -2 7 -8 15 -15 12 -10 15 -10 15 2 0 8 -7 15 -15 15
-8 0 -15 -1 -15 -2z"/>
<path d="M1485 1660 c3 -5 8 -10 11 -10 2 0 4 5 4 10 0 6 -5 10 -11 10 -5 0
-7 -4 -4 -10z"/>
<path d="M1448 1567 c-3 -19 -2 -25 4 -19 6 6 8 18 6 28 -3 14 -5 12 -10 -9z"/>
<path d="M1668 1564 c24 -17 39 -14 27 5 -3 6 -16 11 -28 11 l-21 0 22 -16z"/>
<path d="M1731 1554 c0 -11 3 -14 6 -6 3 7 2 16 -1 19 -3 4 -6 -2 -5 -13z"/>
<path d="M1811 1403 c7 -12 15 -20 18 -17 3 2 -3 12 -13 22 -17 16 -18 16 -5
-5z"/>
<path d="M1396 1355 c-3 -8 -1 -15 4 -15 6 0 10 7 10 15 0 8 -2 15 -4 15 -2 0
-6 -7 -10 -15z"/>
<path d="M1800 1326 c0 -2 7 -7 16 -10 8 -3 12 -2 9 4 -6 10 -25 14 -25 6z"/>
<path d="M1190 1230 c0 -5 5 -10 11 -10 5 0 7 5 4 10 -3 6 -8 10 -11 10 -2 0
-4 -4 -4 -10z"/>
<path d="M1115 1210 c3 -5 12 -7 20 -3 21 7 19 13 -6 13 -11 0 -18 -4 -14 -10z"/>
<path d="M1130 1182 c0 -30 44 -105 63 -108 9 -1 17 4 17 12 0 8 6 11 15 8 8
-4 15 -1 15 5 0 15 -33 14 -48 -1 -10 -10 -10 -5 0 22 8 24 13 30 16 18 2 -10
8 -18 13 -18 5 0 1 17 -8 38 -23 49 -23 49 -33 32 -7 -12 -12 -12 -22 -2 -17
17 -28 15 -28 -6z"/>
<path d="M1097 1163 c-11 -11 -8 -20 7 -20 8 0 12 6 9 14 -6 15 -7 15 -16 6z"/>
<path d="M1018 1093 c6 -2 18 -2 25 0 6 3 1 5 -13 5 -14 0 -19 -2 -12 -5z"/>
<path d="M935 1060 c-3 -5 -1 -10 4 -10 6 0 11 5 11 10 0 6 -2 10 -4 10 -3 0
-8 -4 -11 -10z"/>
<path d="M822 1025 c-17 -36 -15 -37 11 -12 13 12 22 25 20 30 -8 14 -20 7
-31 -18z"/>
<path d="M1270 1011 c-6 -12 -15 -19 -21 -16 -17 11 -10 -16 13 -48 43 -61 56
-68 77 -43 10 11 9 22 -5 48 -16 30 -18 31 -26 13 -7 -17 -8 -16 -4 5 3 14 -1
33 -9 43 -13 18 -14 18 -25 -2z m57 -76 c0 -8 -4 -15 -9 -15 -10 0 -11 14 -1
23 9 10 10 9 10 -8z"/>
<path d="M2190 1018 c0 -18 17 -33 46 -40 17 -4 20 -2 16 14 -2 10 -10 17 -16
15 -6 -3 -19 2 -28 11 -16 14 -18 14 -18 0z"/>
<path d="M2234 951 c-8 -8 -4 -41 6 -41 5 0 7 6 4 13 -4 10 7 14 41 15 43 0
60 -10 33 -21 -8 -3 -6 -6 5 -6 9 -1 17 -7 17 -13 0 -9 4 -8 10 2 5 8 10 10
10 4 0 -5 7 -19 15 -30 13 -16 14 -16 9 -1 -3 9 -1 17 5 17 13 0 33 -35 24
-44 -3 -3 -2 -6 4 -6 6 0 16 7 23 15 10 12 10 15 -4 15 -9 0 -16 7 -16 15 0 8
-7 15 -15 15 -9 0 -18 7 -21 15 -4 8 -14 15 -23 15 -9 0 -21 4 -26 9 -11 10
-93 20 -101 12z"/>
<path d="M770 873 c-16 -91 -14 -190 5 -293 17 -89 22 -111 53 -225 11 -38 23
-88 27 -110 4 -22 17 -73 30 -115 13 -41 26 -87 29 -102 5 -22 11 -27 36 -26
l29 1 -18 26 c-21 31 -71 151 -82 201 -12 50 11 59 33 13 10 -20 18 -42 18
-50 0 -7 9 -18 20 -25 11 -7 20 -24 20 -37 0 -13 9 -39 21 -58 12 -18 19 -43
16 -53 -5 -21 8 -26 33 -10 9 5 19 5 27 -2 8 -6 17 -8 20 -4 4 4 3 10 -3 14
-5 4 -15 18 -21 32 -11 23 -12 23 -12 4 -1 -12 -8 -27 -16 -34 -13 -10 -15 -9
-15 10 0 12 -10 35 -21 52 -17 23 -20 39 -16 76 5 42 4 45 -9 27 -11 -15 -17
-16 -26 -7 -10 10 -10 17 -1 31 10 16 9 20 -6 24 -10 2 -20 16 -23 30 -4 22
-3 24 12 15 29 -18 47 -2 71 61 22 62 44 83 34 34 -3 -16 -2 -21 1 -13 4 8 12
18 18 22 7 5 -3 20 -27 41 -45 42 -49 57 -7 27 17 -12 50 -24 73 -27 44 -6 67
-18 67 -36 0 -6 -18 -8 -46 -4 -29 3 -41 1 -33 -4 8 -5 33 -9 55 -9 49 0 60
-13 92 -109 24 -70 29 -180 12 -227 -14 -37 -4 -44 12 -8 17 40 13 163 -8 227
-21 65 -73 153 -113 191 -17 17 -31 36 -31 45 0 19 47 -25 98 -91 24 -33 38
-44 44 -35 4 7 0 15 -13 19 -17 6 -18 10 -7 27 6 11 17 17 23 13 5 -3 3 3 -5
13 -14 18 -15 18 -18 -3 -4 -25 -15 -28 -30 -9 -7 8 -7 19 2 36 19 34 9 70
-22 78 -32 8 -49 -3 -89 -56 -40 -52 -42 -35 -6 41 26 53 43 72 43 48 0 -5 9
-1 21 11 15 15 28 19 52 14 26 -5 29 -4 14 5 -9 6 -15 15 -13 19 3 5 -5 6 -18
4 -13 -3 -33 0 -45 6 -18 10 -21 9 -22 -6 0 -13 -4 -10 -13 10 l-12 28 -19
-36 c-11 -19 -26 -35 -34 -35 -12 0 -12 3 -3 12 7 7 12 19 12 28 0 8 11 29 25
45 19 24 24 26 25 12 0 -15 7 -18 42 -15 26 2 43 9 46 18 4 12 2 13 -9 3 -15
-15 -69 -17 -69 -3 0 5 7 7 15 4 8 -4 15 -4 15 -1 0 8 -102 39 -108 33 -3 -3
2 -14 11 -24 25 -27 21 -32 -12 -16 -39 20 -61 46 -43 52 8 2 -10 15 -38 29
-29 14 -66 37 -82 51 -17 15 -34 26 -39 25 -5 -2 -9 2 -9 7 0 6 6 10 13 10 6
0 4 5 -5 11 -11 6 -18 22 -18 39 0 54 -18 31 -30 -37z m30 -53 c0 -11 9 -43
20 -72 24 -62 10 -92 -15 -32 -22 52 -31 124 -16 124 6 0 11 -9 11 -20z m83
-54 c73 -29 104 -60 86 -83 -12 -13 -15 -13 -31 7 -14 18 -16 26 -7 37 10 11
9 12 -5 7 -9 -3 -16 -1 -16 5 0 6 -5 11 -10 11 -6 0 1 -20 15 -43 41 -71 28
-78 -15 -8 -23 34 -50 65 -60 68 -11 3 -20 9 -20 14 0 12 -4 13 63 -15z m-24
-30 c8 -9 8 -16 2 -20 -6 -4 -15 3 -21 14 -12 23 2 27 19 6z m211 -38 c0 -5
-9 -4 -20 2 -11 6 -20 12 -20 14 0 2 9 2 20 -1 11 -3 20 -9 20 -15z m-190 -2
c0 -8 -11 -28 -25 -44 -14 -17 -25 -40 -25 -53 1 -20 3 -19 16 11 12 27 17 32
24 20 14 -22 12 -30 -5 -24 -8 4 -15 2 -15 -4 0 -5 7 -15 15 -22 8 -7 15 -21
15 -31 0 -11 5 -19 10 -19 6 0 10 -4 10 -10 0 -21 -42 -120 -51 -120 -6 0 -5
8 1 20 6 11 8 20 5 20 -4 0 -3 6 2 13 4 6 8 17 9 22 1 6 5 18 9 28 5 12 3 17
-6 15 -9 -2 -15 8 -17 30 -2 18 -7 30 -12 27 -5 -3 -11 -1 -15 4 -3 6 -11 8
-19 5 -19 -7 -16 29 5 43 9 7 27 29 39 48 24 38 30 43 30 21z m-70 -17 c7 -11
9 -23 6 -26 -8 -9 -36 17 -36 33 0 21 18 17 30 -7z m110 -69 c-14 -26 -16 -26
-34 11 -12 24 -13 35 -5 45 9 11 15 9 31 -11 15 -19 17 -29 8 -45z m60 29
l-29 -41 21 -18 c20 -16 21 -21 10 -45 l-13 -28 -15 22 c-9 12 -13 28 -10 36
3 9 0 12 -10 8 -18 -7 -18 1 2 40 22 42 44 67 61 67 8 0 3 -15 -17 -41z m48
-10 c-7 -22 -15 -29 -26 -24 -9 3 2 -11 24 -32 l41 -38 -15 -37 c-15 -39 -38
-50 -48 -23 -8 21 15 47 35 40 9 -3 -3 13 -26 37 -24 24 -43 47 -43 51 0 13
53 67 61 62 4 -3 3 -19 -3 -36z m65 -21 c3 -10 7 -10 19 0 9 7 23 9 32 6 15
-6 15 -7 0 -19 -10 -7 -26 -10 -36 -7 -10 2 -18 0 -18 -4 0 -5 -4 -15 -9 -23
-8 -12 -12 -12 -25 -2 -14 12 -14 15 1 37 17 27 29 30 36 12z m-170 -57 c40
-52 50 -84 18 -54 -41 38 -76 103 -56 103 0 0 18 -22 38 -49z m-116 -13 c-3
-8 -6 -5 -6 6 -1 11 2 17 5 13 3 -3 4 -12 1 -19z m48 -47 c-9 -9 -35 22 -35
43 0 19 2 18 20 -9 10 -16 17 -31 15 -34z m131 -10 c-15 -28 -31 -51 -36 -51
-10 0 8 42 38 88 26 40 24 16 -2 -37z m202 15 c5 -43 -13 -54 -43 -26 -38 36
-30 62 20 57 14 -1 21 -11 23 -31z m-244 -39 c-3 -9 -10 -17 -15 -17 -14 0
-31 40 -24 58 5 14 8 13 26 -4 12 -13 17 -27 13 -37z m-99 5 c0 -18 -20 -15
-23 4 -3 10 1 15 10 12 7 -3 13 -10 13 -16z m263 -4 c17 -17 15 -28 -6 -28
-24 0 -32 8 -25 26 6 17 15 18 31 2z m-116 -93 c9 -12 -1 -27 -13 -19 -5 3 -6
10 -3 16 4 6 3 8 -3 5 -10 -7 -49 33 -45 46 1 5 -2 6 -7 2 -9 -5 -31 24 -31
41 0 8 85 -69 102 -91z m8 65 c12 -6 16 -17 13 -30 -6 -23 -12 -24 -36 -6 -10
8 -15 20 -11 30 7 19 9 19 34 6z m-91 -34 c23 -24 23 -24 3 -35 -25 -13 -62
-14 -62 -2 0 4 15 13 33 19 17 7 22 10 10 8 -17 -3 -23 1 -23 15 0 25 12 24
39 -5z m52 -46 c23 -13 25 -43 4 -60 -13 -11 -20 -11 -40 0 -18 10 -28 10 -38
2 -16 -14 -27 -6 -27 18 0 9 15 23 33 32 41 20 44 20 68 8z m-11 -330 c0 -5
-2 -10 -4 -10 -3 0 -8 5 -11 10 -3 6 -1 10 4 10 6 0 11 -4 11 -10z"/>
<path d="M697 913 c-4 -3 -7 -16 -6 -27 0 -19 1 -19 10 3 10 24 8 36 -4 24z"/>
<path d="M3310 902 c0 -5 6 -15 14 -21 12 -10 14 -9 12 5 -3 19 -26 33 -26 16z"/>
<path d="M2460 869 c0 -5 5 -7 10 -4 6 3 10 8 10 11 0 2 -4 4 -10 4 -5 0 -10
-5 -10 -11z"/>
<path d="M675 771 c-4 -38 -3 -76 2 -85 6 -10 9 14 11 69 1 47 0 85 -2 85 -2
0 -7 -31 -11 -69z"/>
<path d="M2195 820 c3 -5 11 -10 16 -10 6 0 7 5 4 10 -3 6 -11 10 -16 10 -6 0
-7 -4 -4 -10z"/>
<path d="M1417 806 c-4 -9 -13 -13 -21 -10 -22 8 -29 -13 -12 -37 10 -15 12
-28 6 -45 -8 -19 -5 -27 16 -43 26 -21 46 -19 77 7 19 17 21 30 7 52 -9 13
-13 12 -26 -5 -15 -19 -15 -18 -9 18 5 24 4 37 -4 37 -6 0 -11 -7 -11 -15 0
-8 -4 -15 -10 -15 -13 0 -13 6 1 32 7 13 7 24 1 30 -6 6 -11 4 -15 -6z m63
-106 c-24 -15 -36 -11 -14 4 10 8 21 12 24 10 2 -3 -2 -9 -10 -14z"/>
<path d="M3150 803 c0 -6 -2 -17 -3 -25 -2 -7 -2 -10 0 -5 3 4 10 4 15 1 6 -4
8 -2 4 4 -3 6 3 17 15 25 20 15 20 15 -5 13 -14 0 -26 -6 -26 -13z"/>
<path d="M2236 801 c-4 -7 -5 -15 -2 -18 9 -9 19 4 14 18 -4 11 -6 11 -12 0z"/>
<path d="M2265 782 c-10 -10 17 -42 28 -35 7 4 17 8 24 9 6 1 19 7 30 13 17
10 17 10 -2 12 -55 4 -76 5 -80 1z"/>
<path d="M2375 760 l-30 -20 28 0 c16 0 26 4 23 9 -4 5 0 11 6 14 7 2 11 7 8
10 -3 3 -19 -3 -35 -13z"/>
<path d="M2430 769 c0 -13 17 -19 34 -13 24 9 19 20 -9 20 -14 0 -25 -3 -25
-7z"/>
<path d="M2565 761 c-19 -8 -19 -8 3 -20 13 -7 31 -10 40 -8 12 3 11 5 -5 6
-16 1 -21 6 -17 16 7 17 7 17 -21 6z"/>
<path d="M2506 745 c-28 -12 -28 -12 -5 -18 24 -7 44 4 38 21 -2 5 -16 4 -33
-3z"/>
<path d="M3135 740 c-3 -5 -1 -10 4 -10 6 0 11 5 11 10 0 6 -2 10 -4 10 -3 0
-8 -4 -11 -10z"/>
<path d="M2416 728 c7 -11 41 -10 49 1 3 5 -8 9 -24 9 -17 -1 -28 -5 -25 -10z"/>
<path d="M2815 690 c-3 -5 -1 -10 4 -10 6 0 11 5 11 10 0 6 -2 10 -4 10 -3 0
-8 -4 -11 -10z"/>
<path d="M1217 678 c-2 -7 3 -18 12 -25 14 -11 14 -12 -4 -13 -19 -1 -19 -1
-2 -11 23 -13 32 -6 22 18 -5 10 -7 24 -6 31 1 6 -2 12 -8 12 -5 0 -11 -6 -14
-12z"/>
<path d="M1285 620 c5 -61 34 -210 70 -360 9 -36 25 -105 37 -155 11 -50 24
-94 29 -99 16 -17 10 10 -52 269 -43 178 -68 301 -69 335 -1 19 -6 44 -11 55
-6 14 -8 0 -4 -45z"/>
<path d="M1486 668 c-9 -19 17 -53 33 -43 5 3 12 1 16 -4 3 -6 12 -8 20 -4 19
7 19 -8 1 -33 -14 -18 -15 -18 -21 9 -7 27 -8 27 -26 11 -16 -14 -19 -15 -19
-2 0 18 -37 54 -46 45 -4 -3 -2 -19 3 -34 6 -15 8 -58 6 -96 -4 -54 1 -81 22
-140 14 -39 30 -73 35 -75 5 -2 7 -18 4 -35 l-6 -32 22 32 c26 39 63 44 97 11
l23 -21 0 22 c0 18 5 22 28 19 15 -2 26 -8 24 -15 -1 -7 4 -13 12 -13 8 0 24
-16 36 -35 12 -19 26 -35 30 -35 5 0 17 -16 26 -35 9 -19 20 -35 25 -35 5 0 9
-7 9 -15 0 -7 6 -18 13 -22 7 -4 19 -27 27 -50 15 -47 36 -60 26 -15 l-7 27
23 -25 c25 -28 43 -34 67 -25 13 5 13 7 1 15 -8 5 -11 12 -7 16 4 4 13 2 19
-4 7 -7 16 -12 21 -12 4 0 -8 20 -28 44 -44 55 -45 91 -2 91 19 -1 26 3 22 13
-3 7 -5 25 -5 38 0 17 -5 24 -16 22 -21 -4 -39 24 -31 46 5 12 13 15 27 11 17
-5 20 -2 20 20 0 15 4 24 10 20 6 -4 9 -1 8 6 -2 6 3 14 11 17 11 4 13 -6 8
-49 -4 -35 -3 -47 3 -34 5 11 9 32 9 47 1 21 13 35 61 66 l60 41 30 -26 c36
-30 37 -43 5 -73 -23 -22 -26 -22 -43 -7 -20 18 -72 23 -72 7 0 -5 7 -10 15
-10 9 0 15 -9 15 -23 0 -34 29 -87 46 -87 15 0 14 -11 -3 -56 -2 -5 8 -28 22
-49 15 -21 24 -46 22 -57 -7 -27 9 -32 33 -8 11 11 20 17 20 13 1 -5 9 3 20
16 20 23 20 23 -1 52 -11 16 -25 29 -30 29 -6 0 -1 -12 10 -26 11 -14 17 -32
14 -40 -3 -8 -8 -13 -10 -10 -3 3 -14 -5 -24 -17 -18 -21 -18 -21 -19 -2 0 11
-9 35 -20 53 -25 41 -25 58 1 106 11 21 18 40 15 43 -2 3 -9 -5 -16 -16 -6
-12 -20 -21 -30 -21 -23 0 -26 10 -8 28 9 9 7 12 -10 12 -19 0 -22 6 -22 37 0
35 0 36 20 18 28 -26 64 -13 87 32 62 123 77 135 43 34 -11 -33 -19 -75 -19
-93 2 -30 2 -31 6 -5 6 36 17 34 42 -7 14 -22 24 -59 28 -103 l6 -68 -24 29
c-12 16 -28 50 -35 75 -7 26 -13 36 -13 23 -1 -30 25 -91 50 -118 16 -18 18
-25 8 -53 -10 -29 -12 -30 -25 -14 -12 16 -13 16 -14 2 0 -9 7 -22 15 -29 34
-28 58 109 36 200 -5 19 -10 42 -12 50 -2 8 -13 22 -23 31 -22 18 -24 59 -7
103 10 25 15 27 39 21 15 -4 50 -9 79 -12 45 -4 55 -9 80 -41 26 -35 28 -43
28 -132 0 -89 -3 -99 -34 -157 -19 -35 -37 -63 -40 -63 -17 1 -38 29 -44 59
l-7 35 23 -22 c29 -27 52 -29 41 -5 -8 19 -12 80 -16 226 -2 48 -7 87 -11 87
-5 0 -21 -13 -35 -30 -28 -31 -50 -37 -83 -20 -10 6 -19 8 -19 5 0 -3 17 -13
37 -22 37 -15 37 -15 65 16 l28 31 0 -39 c0 -22 -5 -42 -12 -44 -10 -4 -10 -6
0 -6 6 -1 12 -8 12 -17 0 -12 -7 -15 -25 -12 -33 7 -32 4 10 -21 35 -21 36
-21 33 -84 -2 -47 -6 -63 -15 -60 -7 3 -14 9 -14 14 -1 5 -2 13 -3 18 -2 17
-16 25 -17 10 -1 -8 -5 2 -10 21 -6 27 -7 24 -2 -15 3 -27 6 -69 7 -92 0 -28
4 -39 11 -33 6 5 17 5 25 0 27 -18 36 -10 67 58 82 175 64 269 -75 398 -27 26
-40 44 -33 48 15 10 90 -54 126 -107 25 -38 31 -42 41 -29 6 8 16 12 22 8 17
-10 15 -46 -3 -46 -18 0 -18 -1 -5 -34 6 -16 15 -24 24 -20 19 7 46 -34 46
-71 0 -16 -7 -51 -15 -77 -7 -26 -10 -50 -6 -53 8 -5 14 17 27 108 8 49 -12
96 -42 103 -27 7 -32 29 -9 38 34 13 -1 72 -37 63 -12 -3 -22 2 -29 15 -15 27
2 44 29 29 18 -9 20 -7 24 23 5 43 -9 95 -27 102 -21 8 -44 59 -34 75 14 23
41 -2 55 -50 7 -24 22 -89 34 -145 11 -55 30 -123 40 -151 11 -27 29 -99 41
-160 19 -99 38 -160 39 -128 0 25 -59 279 -74 314 -8 19 -27 93 -41 165 -15
71 -32 138 -38 149 -6 11 -10 23 -9 27 3 11 -71 -4 -94 -19 -12 -8 -39 -13
-61 -12 -21 2 -44 -1 -51 -5 -8 -4 -12 -1 -13 11 0 16 -2 15 -16 -4 -22 -32
-41 -29 -36 5 3 27 3 27 -7 3 -8 -19 -13 -22 -22 -13 -19 19 -41 14 -64 -16
-16 -20 -26 -24 -34 -16 -8 8 -7 14 5 24 8 7 15 18 15 24 -1 6 -10 0 -21 -14
l-21 -25 -18 22 -18 23 -16 -25 c-9 -13 -16 -29 -16 -35 0 -6 -5 -8 -12 -4
-17 11 -48 12 -42 2 3 -4 -5 -8 -18 -9 -15 0 -18 -3 -8 -6 8 -3 23 -12 32 -21
10 -8 24 -12 33 -8 13 4 16 1 13 -17 -3 -20 -7 -22 -65 -19 -52 3 -65 0 -83
-18 -12 -12 -19 -24 -17 -27 3 -2 15 5 27 17 18 18 30 21 63 17 22 -3 43 -11
47 -17 6 -9 37 22 71 73 4 5 12 7 18 3 7 -5 -1 -24 -24 -57 -18 -27 -37 -58
-40 -69 -7 -22 -35 -28 -35 -8 0 9 -3 9 -12 0 -18 -18 -62 -14 -86 8 -23 21
-32 25 -32 12 0 -4 14 -16 30 -25 42 -25 117 -24 169 2 39 21 49 19 33 -5 -10
-15 -80 -50 -117 -58 -21 -4 -42 0 -70 14 -49 25 -47 25 -39 -4 11 -44 -6 -50
-37 -14 -30 35 -38 85 -17 106 9 9 9 12 1 12 -7 0 -14 -8 -17 -18 -7 -21 -5
-104 2 -97 10 10 32 -18 32 -42 0 -21 3 -22 20 -13 11 6 23 22 26 35 3 14 7
25 9 25 1 0 16 -5 32 -11 36 -12 35 -39 0 -54 -34 -15 -34 -55 -2 -81 27 -22
27 -44 0 -44 -12 0 -46 -49 -45 -65 0 -18 -2 -18 -11 -2 -6 9 -15 15 -20 11
-5 -3 -9 -2 -8 3 3 19 -2 25 -14 15 -10 -8 -19 -3 -39 22 -23 28 -24 34 -12
51 13 18 14 17 14 -8 0 -15 4 -27 9 -27 14 0 23 33 12 40 -6 3 -12 15 -14 25
-1 11 -6 25 -10 31 -4 7 -11 45 -17 85 -10 77 -45 234 -63 282 -14 39 -21 26
-8 -15 16 -52 49 -208 56 -263 l6 -50 -31 35 c-29 33 -30 33 -30 10 0 -23 -1
-23 -17 -8 -14 14 -14 20 -3 33 7 8 11 17 9 18 -2 1 -12 9 -21 16 -23 17 -55
-4 -38 -24 6 -7 7 -16 2 -18 -4 -3 -20 9 -35 28 -22 27 -24 34 -11 39 8 3 12
10 9 16 -3 5 -1 10 4 10 6 0 10 -10 8 -21 -1 -12 3 -24 9 -26 16 -5 28 29 13
37 -8 6 -8 13 0 29 14 26 21 27 14 3 -2 -10 3 -24 11 -31 14 -12 16 -9 16 23
0 20 -5 36 -10 36 -6 0 -8 10 -5 23 8 30 -33 86 -47 65 -5 -8 -6 -3 -2 15 3
15 2 27 -2 26 -18 -3 -53 13 -58 27 -3 8 -19 14 -36 14 -17 0 -29 -4 -25 -10
3 -5 13 -6 21 -3 14 5 14 3 3 -16 -8 -12 -20 -19 -27 -16 -8 3 -17 5 -22 5 -5
0 -10 10 -13 23 -3 19 -5 20 -11 5z m130 -52 c2 -11 1 -12 -3 -2 -2 9 -11 12
-20 9 -11 -4 -14 -3 -9 6 10 16 31 8 32 -13z m691 -17 c33 -19 51 -35 45 -41
-9 -9 -111 50 -112 65 0 12 10 8 67 -24z m132 14 c11 3 29 -1 40 -9 14 -10 20
-11 23 -2 2 6 10 8 17 4 9 -6 9 -11 0 -22 -9 -11 -7 -14 10 -14 27 0 53 -41
49 -76 -3 -29 -28 -47 -28 -20 0 9 -4 16 -10 16 -5 0 -10 -9 -10 -19 0 -26
-15 -34 -29 -17 -8 10 -9 16 -1 21 5 3 10 14 10 23 0 13 -2 13 -14 -4 -14 -18
-16 -18 -48 14 l-33 32 31 0 c16 0 36 -6 43 -12 11 -11 13 -10 9 2 -3 9 -19
16 -41 18 -29 3 -43 -3 -77 -34 -46 -41 -63 -38 -36 7 10 16 24 42 32 57 7 15
16 25 18 22 2 -3 8 -2 12 3 4 4 0 7 -10 7 -9 0 -14 5 -11 10 5 8 11 7 21 -1 8
-6 23 -9 33 -6z m-291 -16 c12 -13 19 -27 15 -30 -3 -4 2 -7 13 -7 22 -1 60
-27 52 -36 -7 -6 -83 39 -93 56 -3 5 -12 10 -18 10 -7 0 -6 -4 3 -10 13 -8 13
-11 -2 -27 -17 -16 -18 -16 -18 2 0 29 11 65 19 65 4 0 17 -10 29 -23z m112
-23 c0 -20 -27 -29 -45 -14 -23 19 -1 54 25 40 11 -6 20 -17 20 -26z m110 21
c0 -9 -6 -12 -15 -9 -8 4 -15 10 -15 15 0 5 7 9 15 9 8 0 15 -7 15 -15z m-787
-30 c-3 -9 -8 -14 -10 -11 -3 3 -2 9 2 15 9 16 15 13 8 -4z m77 -29 c0 -5 -7
-1 -15 10 -8 10 -14 24 -14 29 0 6 6 1 14 -9 8 -11 15 -24 15 -30z m34 -8 c-3
-5 -12 3 -20 17 -19 38 -17 44 6 16 11 -12 17 -27 14 -33z m377 39 c-1 -12
-15 -9 -19 4 -3 6 1 10 8 8 6 -3 11 -8 11 -12z m179 -56 c-37 -46 -60 -62 -60
-45 0 3 18 26 40 51 22 25 40 51 40 56 0 7 4 7 11 0 9 -9 1 -25 -31 -62z
m-749 15 c-9 -10 -8 -15 4 -20 10 -3 15 1 16 12 0 12 4 9 11 -8 6 -14 10 -29
9 -33 0 -4 6 -21 15 -38 8 -17 13 -36 11 -42 -5 -16 -37 46 -37 73 0 21 -16
28 -22 9 -2 -6 -9 -1 -15 12 -7 16 -7 32 -1 49 6 15 12 20 15 12 3 -7 0 -19
-6 -26z m829 14 c0 -19 -13 -40 -25 -40 -21 0 -27 17 -14 39 12 18 39 19 39 1z
m-724 -27 c-11 -11 -19 6 -11 24 8 17 8 17 12 0 3 -10 2 -21 -1 -24z m593 -20
c-14 -16 -31 -17 -47 -1 -9 9 -8 16 5 30 15 17 17 17 35 2 14 -13 15 -20 7
-31z m-572 -15 c-3 -7 -5 -2 -5 12 0 14 2 19 5 13 2 -7 2 -19 0 -25z m696 -5
c29 -15 70 -29 91 -32 22 -3 41 -11 43 -16 6 -18 -62 -16 -103 2 -56 25 -114
73 -89 73 3 0 29 -12 58 -27z m103 -21 c-7 -6 -66 9 -66 17 0 4 5 12 12 19 9
9 17 7 35 -10 13 -12 21 -23 19 -26z m-223 -12 c26 -19 47 -41 47 -48 0 -16
-27 -3 -53 26 -10 11 -32 26 -48 32 -29 12 -35 21 -23 33 8 8 18 2 77 -43z
m70 26 c21 -16 22 -30 1 -46 -13 -11 -19 -10 -36 8 -18 17 -19 23 -8 36 15 19
20 19 43 2z m-754 -25 c-3 -21 21 -71 35 -71 7 0 7 -3 0 -10 -16 -16 -47 -1
-33 16 8 10 6 16 -10 26 -24 15 -28 55 -6 55 9 0 15 -7 14 -16z m611 0 c0 -5
-7 -11 -15 -15 -15 -5 -20 5 -8 17 9 10 23 9 23 -2z m-483 -98 c-3 -3 -10 -2
-16 2 -7 4 -7 10 2 20 10 11 13 11 15 -2 2 -8 1 -17 -1 -20z m-51 0 c19 -25
17 -28 -13 -31 -19 -1 -24 1 -14 7 9 6 10 11 2 15 -6 4 -9 12 -6 17 9 13 16
11 31 -8z m184 -35 c0 -18 -2 -20 -9 -8 -6 8 -7 18 -5 22 9 14 14 9 14 -14z
m27 -50 c-3 -7 -5 -2 -5 12 0 14 2 19 5 13 2 -7 2 -19 0 -25z m163 -189 c0 -5
-4 -9 -10 -9 -5 0 -10 7 -10 16 0 8 5 12 10 9 6 -3 10 -10 10 -16z"/>
<path d="M2845 672 c-13 -9 -16 -42 -4 -42 5 0 9 10 9 21 0 18 5 21 30 17 17
-3 30 -1 30 4 0 10 -51 10 -65 0z"/>
<path d="M1623 663 c9 -2 25 -2 35 0 9 3 1 5 -18 5 -19 0 -27 -2 -17 -5z"/>
<path d="M2730 651 c0 -12 -7 -36 -16 -53 -10 -19 -11 -28 -3 -23 8 6 10 4 3
-6 -15 -24 -15 -83 1 -95 15 -11 40 -63 37 -76 -1 -5 3 -8 9 -8 5 0 7 -4 4
-10 -3 -5 0 -10 8 -10 8 0 17 -6 20 -14 3 -7 18 -14 33 -13 15 0 33 -8 40 -18
12 -16 14 -16 25 9 8 16 20 26 33 26 12 0 27 9 34 21 8 12 9 18 3 14 -6 -3
-11 -1 -11 4 0 14 13 14 28 -1 9 -9 15 -9 24 0 9 9 9 12 -1 12 -7 0 -10 4 -6
9 10 18 14 121 4 127 -6 3 -8 12 -6 19 3 7 -10 34 -29 60 -19 27 -35 45 -35
42 -1 -4 -2 -11 -3 -16 -2 -18 -17 -25 -25 -13 -12 20 -43 3 -36 -19 7 -21 -5
-25 -22 -8 -7 7 -16 5 -29 -8 -17 -17 -18 -17 -11 1 5 14 4 17 -8 12 -8 -3
-15 -1 -15 4 0 15 -17 12 -23 -4 -3 -8 1 -13 11 -12 11 1 16 -5 14 -16 -2 -10
1 -18 6 -18 5 0 15 -21 22 -47 6 -26 16 -53 22 -60 8 -10 6 -13 -6 -13 -15 0
-20 -11 -17 -37 3 -25 -14 -12 -41 30 l-27 42 21 16 c11 9 18 22 15 30 -4 11
-6 10 -6 -2 -1 -9 -10 -19 -21 -22 -21 -5 -35 5 -23 17 4 3 7 19 8 34 3 63 7
96 11 86 5 -12 61 -7 69 6 3 5 1 11 -5 15 -5 3 -10 1 -10 -6 0 -9 -3 -9 -14 0
-11 9 -15 9 -18 -1 -4 -10 -8 -10 -21 1 -15 12 -17 11 -17 -8z m250 -83 c0
-40 -12 -35 -32 15 -24 57 -23 65 7 37 15 -14 25 -35 25 -52z m-43 -40 c-3 -8
-6 -5 -6 6 -1 11 2 17 5 13 3 -3 4 -12 1 -19z m50 -57 c1 -47 0 -51 -18 -46
-12 4 -21 1 -25 -10 -6 -14 -8 -14 -26 2 -11 10 -22 17 -24 16 -2 -2 -10 -3
-16 -2 -7 0 0 5 17 10 20 6 31 5 37 -4 5 -9 10 -9 20 1 10 10 10 15 -2 22 -13
8 -12 10 2 10 14 0 16 6 11 31 -5 25 -3 31 8 27 9 -3 15 -22 16 -57z m-94 -18
c-7 -2 -21 -2 -30 0 -10 3 -4 5 12 5 17 0 24 -2 18 -5z m-21 -40 c-6 -3 -9 -9
-6 -15 3 -5 14 -2 26 9 13 12 18 13 16 4 -2 -8 8 -17 22 -21 l25 -6 -27 -6
c-15 -3 -30 -3 -33 1 -3 3 -22 4 -41 2 -20 -1 -34 2 -34 9 0 6 5 8 10 5 13 -8
13 8 0 21 -7 7 0 9 22 6 18 -3 27 -7 20 -9z"/>
<path d="M1826 652 c-4 -6 3 -16 14 -22 11 -6 19 -14 19 -18 -4 -23 4 -31 34
-34 30 -3 41 -21 14 -24 -6 -1 -17 -2 -24 -3 -7 0 -17 -11 -23 -23 -10 -22
-10 -22 4 -4 9 11 23 17 35 13 11 -3 25 1 31 8 6 7 22 16 35 19 36 9 32 30 -5
23 -16 -4 -32 -2 -35 4 -4 5 -15 7 -26 4 -31 -10 -40 3 -24 36 16 29 15 29 -5
17 -17 -11 -22 -11 -29 1 -6 9 -11 10 -15 3z"/>
<path d="M3004 643 c3 -10 24 -85 46 -168 22 -82 57 -203 79 -267 22 -64 43
-138 46 -163 4 -25 11 -45 16 -45 5 0 9 1 9 3 0 12 -74 271 -89 312 -10 28
-31 100 -45 160 -42 172 -46 185 -57 185 -6 0 -8 -8 -5 -17z"/>
<path d="M1935 639 c7 -11 102 -12 108 -1 3 4 -22 8 -54 9 -34 1 -57 -2 -54
-8z"/>
<path d="M1240 593 c0 -12 -6 -23 -12 -26 -9 -3 -7 -11 8 -28 27 -30 38 -65
24 -74 -8 -5 -8 -11 0 -20 7 -8 9 -19 5 -25 -3 -5 -2 -10 4 -10 14 0 22 16 13
24 -4 4 -7 25 -8 46 0 23 -8 48 -18 59 -16 17 -17 23 -6 36 10 12 10 19 2 27
-9 9 -12 7 -12 -9z"/>
<path d="M691 582 c-2 -38 64 -306 115 -475 13 -43 24 -85 24 -93 0 -7 4 -14
9 -14 5 0 1 28 -8 63 -50 169 -82 293 -106 402 -32 143 -33 146 -34 117z"/>
<path d="M2740 556 c0 -8 4 -18 10 -21 6 -4 7 1 3 11 -4 12 -3 15 5 10 7 -4
12 -2 12 3 0 6 -7 11 -15 11 -8 0 -15 -6 -15 -14z"/>
<path d="M2788 497 c-3 -14 0 -24 7 -24 7 0 10 10 7 24 -2 12 -6 23 -7 23 -1
0 -5 -11 -7 -23z"/>
<path d="M1860 490 c0 -7 24 -20 36 -20 13 0 1 19 -16 23 -11 3 -20 2 -20 -3z"/>
<path d="M1281 338 c0 -10 -8 -18 -17 -18 -16 0 -14 -16 11 -75 9 -19 14 -24
14 -12 2 29 28 19 40 -14 12 -34 15 -130 5 -166 -4 -13 -13 -23 -20 -23 -8 0
-14 -6 -14 -12 0 -9 -3 -9 -9 1 -6 9 -3 26 7 48 12 26 13 36 4 45 -9 9 -12 6
-12 -13 0 -14 -6 -34 -14 -44 -10 -15 -11 -23 -2 -37 13 -21 32 -24 39 -5 4 9
7 9 15 -1 7 -10 11 -3 15 25 19 111 -2 223 -41 223 -22 0 -35 33 -20 48 5 5 8
18 5 28 -4 17 -5 17 -6 2z"/>
<path d="M1022 258 c3 -63 11 -94 29 -128 13 -25 27 -58 30 -75 4 -17 6 4 6
50 0 55 -2 68 -6 42 l-6 -39 -18 31 c-10 17 -20 54 -23 83 l-5 53 21 -37 c11
-21 23 -38 26 -38 3 0 -6 21 -20 46 -28 50 -36 88 -14 66 20 -20 32 -13 13 8
-32 35 -38 24 -33 -62z"/>
<path d="M1140 310 c-6 -11 -18 -20 -28 -20 -15 0 -15 -2 -2 -10 11 -7 21 -3
39 18 13 15 20 21 16 13 -6 -9 -4 -12 3 -7 17 10 15 26 -3 26 -8 0 -19 -9 -25
-20z"/>
<path d="M3251 285 c0 -11 4 -29 9 -40 l9 -20 0 20 c0 11 -4 29 -9 40 l-9 20
0 -20z"/>
<path d="M630 270 c0 -5 5 -10 11 -10 5 0 7 5 4 10 -3 6 -8 10 -11 10 -2 0 -4
-4 -4 -10z"/>
<path d="M1157 255 c-18 -13 -18 -14 2 -25 29 -15 26 -33 -4 -28 -14 3 -25 1
-25 -3 0 -5 4 -9 10 -9 5 0 16 -12 25 -27 14 -25 15 -25 9 -4 -4 15 -1 27 7
32 11 7 12 12 2 28 -7 11 -10 27 -7 36 7 18 4 18 -19 0z"/>
<path d="M2041 194 c0 -11 3 -14 6 -6 3 7 2 16 -1 19 -3 4 -6 -2 -5 -13z"/>
<path d="M2595 190 c4 -6 -4 -27 -16 -47 -26 -42 -36 -151 -12 -131 7 6 13 20
13 31 0 21 0 21 16 -1 19 -28 45 -28 75 -1 19 17 20 20 5 15 -10 -4 -26 -1
-34 6 -13 11 -15 10 -9 -4 4 -12 2 -18 -7 -18 -8 0 -19 12 -24 28 -6 15 -11
21 -11 15 -1 -7 -5 -13 -11 -13 -17 0 -11 46 10 73 22 27 26 57 9 57 -5 0 -7
-5 -4 -10z"/>
<path d="M1872 178 c-18 -18 -15 -25 13 -31 19 -3 29 1 37 17 8 17 8 19 -2 9
-14 -13 -43 -6 -34 8 8 13 0 11 -14 -3z"/>
<path d="M2061 144 c-2 -31 109 -144 141 -144 7 0 -1 8 -17 18 -30 19 -75 66
-107 112 -9 14 -17 20 -17 14z"/>
<path d="M1970 110 c0 -5 5 -10 11 -10 5 0 7 5 4 10 -3 6 -8 10 -11 10 -2 0
-4 -4 -4 -10z"/>
<path d="M1130 92 c-11 -27 2 -92 17 -92 13 0 13 2 2 16 -12 15 -10 16 20 9
24 -5 31 -4 27 4 -4 6 -10 9 -14 7 -13 -8 -40 20 -44 44 -2 14 -6 19 -8 12z"/>
<path d="M2053 55 c4 -9 7 -19 7 -21 0 -2 5 -4 12 -4 6 0 20 -7 30 -17 10 -9
18 -12 18 -7 0 14 -13 28 -44 48 -26 17 -28 17 -23 1z"/>
<path d="M2018 3 c7 -3 16 -2 19 1 4 3 -2 6 -13 5 -11 0 -14 -3 -6 -6z"/>
</g>
</svg>
